<?xml version="1.0" encoding="UTF-8" standalone="no"?>
<!-- Created with Inkscape (http://www.inkscape.org/) -->

<svg
   xmlns:dc="http://purl.org/dc/elements/1.1/"
   xmlns:cc="http://creativecommons.org/ns#"
   xmlns:rdf="http://www.w3.org/1999/02/22-rdf-syntax-ns#"
   xmlns:svg="http://www.w3.org/2000/svg"
   xmlns="http://www.w3.org/2000/svg"
   xmlns:sodipodi="http://sodipodi.sourceforge.net/DTD/sodipodi-0.dtd"
   xmlns:inkscape="http://www.inkscape.org/namespaces/inkscape"
   width="744.09448819"
   height="1052.3622047"
   id="svg16166"
   version="1.1"
   inkscape:version="0.48.2 r9819"
   sodipodi:docname="New document 37">
  <defs
     id="defs16168" />
  <sodipodi:namedview
     id="base"
     pagecolor="#ffffff"
     bordercolor="#666666"
     borderopacity="1.0"
     inkscape:pageopacity="0.0"
     inkscape:pageshadow="2"
     inkscape:zoom="0.35"
     inkscape:cx="375"
     inkscape:cy="520"
     inkscape:document-units="px"
     inkscape:current-layer="layer1"
     showgrid="false"
     inkscape:window-width="469"
     inkscape:window-height="403"
     inkscape:window-x="100"
     inkscape:window-y="100"
     inkscape:window-maximized="0" />
  <metadata
     id="metadata16171">
    <rdf:RDF>
      <cc:Work
         rdf:about="">
        <dc:format>image/svg+xml</dc:format>
        <dc:type
           rdf:resource="http://purl.org/dc/dcmitype/StillImage" />
        <dc:title></dc:title>
      </cc:Work>
    </rdf:RDF>
  </metadata>
  <g
     inkscape:label="Layer 1"
     inkscape:groupmode="layer"
     id="layer1">
    <g
       style="display:inline"
       id="g16149"
       transform="matrix(12.180124,0,0,12.180124,-11081.872,-3009.7605)">
      <path
         id="rect16131"
         d="m 941.5,268.75 c -8.28427,0 -15,5.26061 -15,15 0,9.73939 9.59915,21.27847 15,31 5.40085,-9.72153 15,-21.26061 15,-31 0,-9.73939 -6.71573,-15 -15,-15 z m 0,9.625 c 2.65787,0 4.8125,2.15463 4.8125,4.8125 0,2.65787 -2.15463,4.8125 -4.8125,4.8125 -2.65787,0 -4.8125,-2.15463 -4.8125,-4.8125 0,-2.65787 2.15463,-4.8125 4.8125,-4.8125 z"
         style="fill:#e15b49;fill-opacity:1;stroke:none"
         inkscape:connector-curvature="0" />
      <path
         id="path16141"
         d="m 941.5,273.25 c -5.48833,0 -9.9375,4.44917 -9.9375,9.9375 0,5.48833 4.44917,9.9375 9.9375,9.9375 5.48833,0 9.9375,-4.44917 9.9375,-9.9375 0,-5.48833 -4.44917,-9.9375 -9.9375,-9.9375 z m 0,5.125 c 2.65787,0 4.8125,2.15463 4.8125,4.8125 0,2.65787 -2.15463,4.8125 -4.8125,4.8125 -2.65787,0 -4.8125,-2.15463 -4.8125,-4.8125 0,-2.65787 2.15463,-4.8125 4.8125,-4.8125 z"
         style="fill:#bc3e25;fill-opacity:1;stroke:none"
         inkscape:connector-curvature="0" />
    </g>
  </g>
</svg>
