<?xml version="1.0" encoding="UTF-8" standalone="no"?>
<!-- Created with Inkscape (http://www.inkscape.org/) -->

<svg
   xmlns:dc="http://purl.org/dc/elements/1.1/"
   xmlns:cc="http://creativecommons.org/ns#"
   xmlns:rdf="http://www.w3.org/1999/02/22-rdf-syntax-ns#"
   xmlns:svg="http://www.w3.org/2000/svg"
   xmlns="http://www.w3.org/2000/svg"
   xmlns:xlink="http://www.w3.org/1999/xlink"
   xmlns:sodipodi="http://sodipodi.sourceforge.net/DTD/sodipodi-0.dtd"
   xmlns:inkscape="http://www.inkscape.org/namespaces/inkscape"
   width="744.09448819"
   height="1052.3622047"
   id="svg8083"
   version="1.1"
   inkscape:version="0.47 r22583"
   sodipodi:docname="New document 9">
  <defs
     id="defs8085">
    <inkscape:perspective
       sodipodi:type="inkscape:persp3d"
       inkscape:vp_x="0 : 526.18109 : 1"
       inkscape:vp_y="0 : 1000 : 0"
       inkscape:vp_z="744.09448 : 526.18109 : 1"
       inkscape:persp3d-origin="372.04724 : 350.78739 : 1"
       id="perspective8091" />
    <inkscape:perspective
       id="perspective8101"
       inkscape:persp3d-origin="0.5 : 0.33333333 : 1"
       inkscape:vp_z="1 : 0.5 : 1"
       inkscape:vp_y="0 : 1000 : 0"
       inkscape:vp_x="0 : 0.5 : 1"
       sodipodi:type="inkscape:persp3d" />
    <filter
       color-interpolation-filters="sRGB"
       inkscape:collect="always"
       id="filter7997"
       x="-0.31826416"
       width="1.6365283"
       y="-0.056524992"
       height="1.11305">
      <feGaussianBlur
         inkscape:collect="always"
         stdDeviation="2.6895944"
         id="feGaussianBlur7999" />
    </filter>
    <linearGradient
       inkscape:collect="always"
       xlink:href="#linearGradient8010"
       id="linearGradient8016"
       x1="-682.00452"
       y1="292.38712"
       x2="-685.54004"
       y2="301.50919"
       gradientUnits="userSpaceOnUse" />
    <linearGradient
       inkscape:collect="always"
       id="linearGradient8010">
      <stop
         style="stop-color:#aa4400;stop-opacity:1;"
         offset="0"
         id="stop8012" />
      <stop
         style="stop-color:#aa4400;stop-opacity:0;"
         offset="1"
         id="stop8014" />
    </linearGradient>
    <linearGradient
       inkscape:collect="always"
       xlink:href="#linearGradient8035"
       id="linearGradient8041"
       x1="-766.32697"
       y1="365.74945"
       x2="-770.52209"
       y2="388.55365"
       gradientUnits="userSpaceOnUse" />
    <linearGradient
       inkscape:collect="always"
       id="linearGradient8035">
      <stop
         style="stop-color:#f2f2f2;stop-opacity:1"
         offset="0"
         id="stop8037" />
      <stop
         style="stop-color:#ffffff;stop-opacity:0;"
         offset="1"
         id="stop8039" />
    </linearGradient>
    <linearGradient
       inkscape:collect="always"
       xlink:href="#linearGradient8057"
       id="linearGradient8063"
       x1="-588.83441"
       y1="216.60272"
       x2="-559.06897"
       y2="245.009"
       gradientUnits="userSpaceOnUse" />
    <linearGradient
       inkscape:collect="always"
       id="linearGradient8057">
      <stop
         style="stop-color:#918a6f;stop-opacity:1"
         offset="0"
         id="stop8059" />
      <stop
         style="stop-color:#24221c;stop-opacity:1"
         offset="1"
         id="stop8061" />
    </linearGradient>
  </defs>
  <sodipodi:namedview
     id="base"
     pagecolor="#ffffff"
     bordercolor="#666666"
     borderopacity="1.0"
     inkscape:pageopacity="0.0"
     inkscape:pageshadow="2"
     inkscape:zoom="0.175"
     inkscape:cx="595.99154"
     inkscape:cy="485.40177"
     inkscape:document-units="px"
     inkscape:current-layer="layer1"
     showgrid="false"
     inkscape:window-width="550"
     inkscape:window-height="483"
     inkscape:window-x="517"
     inkscape:window-y="95"
     inkscape:window-maximized="0" />
  <metadata
     id="metadata8088">
    <rdf:RDF>
      <cc:Work
         rdf:about="">
        <dc:format>image/svg+xml</dc:format>
        <dc:type
           rdf:resource="http://purl.org/dc/dcmitype/StillImage" />
        <dc:title></dc:title>
      </cc:Work>
    </rdf:RDF>
  </metadata>
  <g
     inkscape:label="Layer 1"
     inkscape:groupmode="layer"
     id="layer1">
    <g
       transform="matrix(2.7981998,0,0,2.7981998,2266.2487,-252.30094)"
       style="opacity:0.5625;display:inline"
       id="g8065">
      <path
         sodipodi:nodetypes="cccccccc"
         id="path7939"
         d="m -635.5,332.5 c 8.60163,-6.45088 19.77888,-10.2302 26.5,-18.875 0.4679,-3.82685 0.44513,-6.9177 0.25,-9.75 40.05899,-19.76897 66.55721,-104.00929 24.25,-137.375 l -64.5,-13 c -18.79061,0.72364 -30.59542,10.76166 -41.5,22 -15.02877,23.13976 -19.92203,67.19205 -16,126 l 71,31 z"
         style="fill:#6c6753;stroke:none" />
      <path
         sodipodi:nodetypes="cccccccc"
         id="path7941"
         d="m -624.76777,197.64645 c 2.7888,2.07258 6.78325,5.43559 6.76777,12.18198 -14.50396,33.66575 -10.40546,73.69131 -11,105.67157 -3.22451,4.58384 -6.67321,8.4951 -11.75736,7.5 L -703,297.5 c -0.85371,-29.93322 -7.75233,-78.84665 12,-110 2.10098,-2.71046 4.82386,-5.00632 12.5,-4 15.08232,2.24061 34.7053,6.08241 53.73223,14.14645 z"
         style="fill:#ac9d93;stroke:#784421;stroke-width:1px;stroke-linecap:butt;stroke-linejoin:miter;stroke-opacity:1" />
      <path
         sodipodi:nodetypes="ccc"
         id="path7943"
         d="m -639.93164,313.95388 c -5.10596,-42.36245 1.64004,-81.69143 15.2028,-114.19774 -29.00104,30.21518 -19.74235,92.06578 -15.2028,114.19774 z"
         style="opacity:0.97000002;fill:#ffffff;stroke:none;filter:url(#filter7997)" />
      <path
         sodipodi:nodetypes="ccccc"
         id="path7947"
         d="m -670.69078,201.17035 13.08147,3.18198 c -12.251,23.68084 -10.78837,51.36097 -10.25305,77.78174 l -11.66726,-3.88908 c -0.40493,-41.0505 0.33777,-53.37674 8.83884,-77.07464 z"
         style="fill:#333333;stroke:none" />
      <path
         sodipodi:nodetypes="ccccccccccc"
         id="path7949"
         d="m -650.18469,280.45469 -3.53553,2.91682 -44.40128,-17.14734 -0.4116,-7.42463 -6.71751,-2.2097 -0.0884,-4.86136 6.45235,-4.59619 -0.0884,-12.02082 3.52298,-1.30437 45.09061,13.06002 0.17678,33.58757 z"
         style="fill:#454837;stroke:none" />
      <path
         sodipodi:nodetypes="ccccccc"
         id="rect7955"
         d="m -741.21234,480.5434 46.38215,0.0782 6.56078,-6.35968 0.13139,7.28294 -6.36476,4.6116 -46.70956,-1.41464 0,-4.19844 z"
         style="fill:#676c53;fill-opacity:1;stroke:none"
         transform="matrix(0.95130965,0.30823683,0,1,0,0)" />
      <path
         sodipodi:nodetypes="ccccc"
         id="rect7957"
         d="m -734.37964,462.06232 46.37304,0.24363 0,11.19844 -46.37304,-0.24363 0,-11.19844 z"
         style="fill:#22241c;fill-opacity:1;stroke:none"
         transform="matrix(0.95130965,0.30823683,0,1,0,0)" />
      <path
         sodipodi:nodetypes="ccccccc"
         id="path8001"
         d="m -648.25,305.25 -0.0298,1.5021 -98.82377,60.52823 c -29.78166,5.08729 -48.04457,-17.62966 -50,-22.42938 l 0.0303,-1.37305 103.82322,-55.2279 45,17 z"
         style="fill:#aa4400;stroke:none" />
      <path
         sodipodi:nodetypes="ccccc"
         id="path8003"
         d="m -747.58865,363.8491 c -1.35969,0.95221 -24.69394,8.1955 -48.53635,-20.0991 l 102.86134,-55.49416 44.71416,17.21276 -99.03915,58.3805 z"
         style="fill:#ffd42a;stroke:none" />
      <path
         id="path8005"
         d="m -693.25,288.25 -0.5625,0.3125 c -0.35487,0.8874 -0.5625,1.78604 -0.5625,2.71875 0,8.56984 15.62411,15.53125 34.90625,15.53125 3.37827,0 6.62904,-0.22713 9.71875,-0.625 l 1.1875,-0.71875 L -693.25,288.25 z"
         style="opacity:0.97000002;fill:url(#linearGradient8016);fill-opacity:1;stroke:none" />
      <path
         sodipodi:nodetypes="ccccccccccccccccccc"
         id="path8018"
         d="m -742,389.5 -0.25324,10.69744 L -744.75,402.75 -767,392.5 c -1.62975,-8.66035 -8.82401,-7.85235 -10,-4.75 l -21.75,-11.5 -0.25,-12.5 3,0.5 -0.25,-20.75 15,-8.25 c 8.64884,0.0691 15.48771,-0.01 31.75,3.625 L -730.625,328 c 6.51744,-0.35077 9.85685,0.85148 11.375,5.5 L -739,346 c 2.44401,2.21298 6.19648,6.59212 7.125,8.25 l 0.0808,3.625 -14.95581,9.05308 0,19.07192 4.75,3.5 z"
         style="fill:#b3b3b3;stroke:#333333" />
      <path
         id="path8020"
         d="m -728.3125,327.9375 c -0.71802,-0.008 -1.49782,0.0186 -2.3125,0.0625 l -18.875,10.875 c -15.71899,-3.51356 -22.65113,-3.56361 -30.90625,-3.625 l -15.71875,8.5 c 23.84241,28.2946 47.17156,21.04596 48.53125,20.09375 l 15.71875,-9.28125 0,-0.3125 c -0.92852,-1.65788 -4.68099,-6.03702 -7.125,-8.25 l 19.75,-12.5 c -1.32838,-4.06745 -4.03638,-5.50382 -9.0625,-5.5625 z"
         style="fill:#e6e6e6;stroke:none" />
      <path
         sodipodi:nodetypes="cccccccccccc"
         id="path8030"
         d="m -795.29289,364.95711 -3,-0.14645 0.0732,10.9974 21.15717,11.06694 c 1.17599,-3.10235 8.74525,-3.84785 10.375,4.8125 l 21.9375,10.3112 1.83709,-2.12056 0.16161,-9.67103 -5.76647,-4.73744 -0.17677,-16.7644 c -4.5731,0.68363 -29.44509,-0.90614 -47.07686,-22.83395 l 0.47851,19.08579 z"
         style="fill:url(#linearGradient8041);fill-opacity:1;stroke:none" />
      <path
         id="path8043"
         d="m -649,153.5 c -17.54556,0.67569 -28.99411,9.46934 -39.3125,19.78125 L -622.25,187.75 c 8.97335,-10.00389 29.93481,-28.15566 46.8125,-12.0625 -2.57796,-3.3648 -5.586,-6.44575 -9.0625,-9.1875 l -64.5,-13 z"
         style="opacity:0.19711537;fill:#ffffff;stroke:none" />
      <path
         transform="matrix(1.7218788,0.57623993,-0.31071006,1.1386719,468.84765,300.91187)"
         d="m -560.02855,234.93469 c 0,24.89593 -6.72737,45.07806 -15.02602,45.07806 -8.29864,0 -15.02601,-20.18213 -15.02601,-45.07806 0,-24.89592 6.72737,-45.07805 15.02601,-45.07805 8.29865,0 15.02602,20.18213 15.02602,45.07805 z"
         sodipodi:ry="45.078056"
         sodipodi:rx="15.026019"
         sodipodi:cy="234.93469"
         sodipodi:cx="-575.05457"
         id="path8048"
         style="fill:url(#linearGradient8063);fill-opacity:1;stroke:none"
         sodipodi:type="arc" />
      <path
         id="path8052"
         d="m -582.53125,197.34375 c -8.88057,-0.24001 -18.76639,8.75401 -25.25,22.5625 6.37114,-12.05827 15.93031,-19.2063 23.90625,-16.78125 10.12056,3.07711 13.88497,20.38353 8.40625,38.625 -5.47872,18.24147 -18.12944,30.51461 -28.25,27.4375 -6.73388,-2.04741 -10.64819,-10.40466 -10.90625,-21.125 -0.41791,14.17758 4.17803,25.47361 12.5625,28.09375 11.66534,3.64541 26.24753,-10.88959 32.5625,-32.5 6.31497,-21.61041 1.97784,-42.10459 -9.6875,-45.75 -1.09363,-0.34176 -2.20799,-0.5318 -3.34375,-0.5625 z"
         style="fill:#484537;fill-opacity:1;stroke:none" />
    </g>
  </g>
</svg>
