<?xml version="1.0" encoding="UTF-8" standalone="no"?>
<!-- Created with Inkscape (http://www.inkscape.org/) -->

<svg
   xmlns:dc="http://purl.org/dc/elements/1.1/"
   xmlns:cc="http://creativecommons.org/ns#"
   xmlns:rdf="http://www.w3.org/1999/02/22-rdf-syntax-ns#"
   xmlns:svg="http://www.w3.org/2000/svg"
   xmlns="http://www.w3.org/2000/svg"
   xmlns:sodipodi="http://sodipodi.sourceforge.net/DTD/sodipodi-0.dtd"
   xmlns:inkscape="http://www.inkscape.org/namespaces/inkscape"
   width="744.09448819"
   height="1052.3622047"
   id="svg16215"
   version="1.1"
   inkscape:version="0.91 r13725"
   sodipodi:docname="on-off.svg">
  <defs
     id="defs16217" />
  <sodipodi:namedview
     id="base"
     pagecolor="#ffffff"
     bordercolor="#666666"
     borderopacity="1.0"
     inkscape:pageopacity="0.0"
     inkscape:pageshadow="2"
     inkscape:zoom="0.35"
     inkscape:cx="-87.857143"
     inkscape:cy="501.026"
     inkscape:document-units="px"
     inkscape:current-layer="layer1"
     showgrid="false"
     inkscape:window-width="1600"
     inkscape:window-height="847"
     inkscape:window-x="-8"
     inkscape:window-y="-8"
     inkscape:window-maximized="1" />
  <metadata
     id="metadata16220">
    <rdf:RDF>
      <cc:Work
         rdf:about="">
        <dc:format>image/svg+xml</dc:format>
        <dc:type
           rdf:resource="http://purl.org/dc/dcmitype/StillImage" />
        <dc:title></dc:title>
      </cc:Work>
    </rdf:RDF>
  </metadata>
  <g
     inkscape:label="Layer 1"
     inkscape:groupmode="layer"
     id="layer1">
    <g
       id="g4192"
       transform="matrix(10.227847,0,0,10.227847,3466.755,-13220.126)"
       inkscape:export-filename="J:\wwwroot\alejandro-parabola\_doc\art\hud-switch-on_off.png"
       inkscape:export-xdpi="90"
       inkscape:export-ydpi="90">
      <rect
         y="1305.6122"
         x="-321.32843"
         height="38.5"
         width="38.5"
         id="rect4176"
         style="fill:#b29d61;fill-opacity:1;stroke:#f2d486;stroke-opacity:1" />
      <path
         sodipodi:nodetypes="ccccccsssccssscc"
         inkscape:connector-curvature="0"
         id="path4165"
         d="m -303.98319,1312.3622 0,11.4078 3.80952,0 0,-11.4078 z m -3.09524,0.5765 c -4.40862,1.9688 -7.5,6.46 -7.5,11.6808 0,7.0375 5.59644,12.7427 12.5,12.7427 6.90356,0 12.5,-5.7052 12.5,-12.7427 0,-5.2208 -3.09138,-9.712 -7.5,-11.6808 l 0,5.0363 c 1.95557,1.5308 3.21429,3.9368 3.21429,6.6445 0,4.6248 -3.67766,8.3738 -8.21429,8.3738 -4.53663,0 -8.21429,-3.749 -8.21429,-8.3738 0,-2.7077 1.25872,-5.1137 3.21429,-6.6445 z"
         style="fill:#800000;fill-opacity:1;stroke:none" />
    </g>
    <g
       id="g4188"
       transform="matrix(10.227847,0,0,10.227847,3487.2106,-13511.62)"
       inkscape:export-filename="J:\wwwroot\alejandro-parabola\_doc\art\hud-switch-on_off.png"
       inkscape:export-xdpi="90"
       inkscape:export-ydpi="90">
      <rect
         style="fill:#b29d61;fill-opacity:1;stroke:#f2d486;stroke-opacity:1"
         id="rect4184"
         width="38.5"
         height="38.5"
         x="-323.32843"
         y="1373.6122" />
      <path
         style="fill:#498000;fill-opacity:1;stroke:none"
         d="m -305.98319,1380.3622 0,11.4078 3.80952,0 0,-11.4078 z m -3.09524,0.5765 c -4.40862,1.9688 -7.5,6.46 -7.5,11.6808 0,7.0375 5.59644,12.7427 12.5,12.7427 6.90356,0 12.5,-5.7052 12.5,-12.7427 0,-5.2208 -3.09138,-9.712 -7.5,-11.6808 l 0,5.0363 c 1.95557,1.5308 3.21429,3.9368 3.21429,6.6445 0,4.6248 -3.67766,8.3738 -8.21429,8.3738 -4.53663,0 -8.21429,-3.749 -8.21429,-8.3738 0,-2.7077 1.25872,-5.1137 3.21429,-6.6445 z"
         id="path4186"
         inkscape:connector-curvature="0"
         sodipodi:nodetypes="ccccccsssccssscc" />
    </g>
  </g>
</svg>
