<?xml version="1.0" encoding="UTF-8" standalone="no"?>
<!-- Created with Inkscape (http://www.inkscape.org/) -->

<svg
   xmlns:dc="http://purl.org/dc/elements/1.1/"
   xmlns:cc="http://creativecommons.org/ns#"
   xmlns:rdf="http://www.w3.org/1999/02/22-rdf-syntax-ns#"
   xmlns:svg="http://www.w3.org/2000/svg"
   xmlns="http://www.w3.org/2000/svg"
   xmlns:sodipodi="http://sodipodi.sourceforge.net/DTD/sodipodi-0.dtd"
   xmlns:inkscape="http://www.inkscape.org/namespaces/inkscape"
   width="744.09448819"
   height="1052.3622047"
   id="svg16331"
   version="1.1"
   inkscape:version="0.48.2 r9819"
   sodipodi:docname="New document 43">
  <defs
     id="defs16333" />
  <sodipodi:namedview
     id="base"
     pagecolor="#ffffff"
     bordercolor="#666666"
     borderopacity="1.0"
     inkscape:pageopacity="0.0"
     inkscape:pageshadow="2"
     inkscape:zoom="0.35"
     inkscape:cx="375"
     inkscape:cy="614.62381"
     inkscape:document-units="px"
     inkscape:current-layer="layer1"
     showgrid="false"
     inkscape:window-width="469"
     inkscape:window-height="403"
     inkscape:window-x="175"
     inkscape:window-y="175"
     inkscape:window-maximized="0" />
  <metadata
     id="metadata16336">
    <rdf:RDF>
      <cc:Work
         rdf:about="">
        <dc:format>image/svg+xml</dc:format>
        <dc:type
           rdf:resource="http://purl.org/dc/dcmitype/StillImage" />
        <dc:title></dc:title>
      </cc:Work>
    </rdf:RDF>
  </metadata>
  <g
     inkscape:label="Layer 1"
     inkscape:groupmode="layer"
     id="layer1">
    <g
       style="display:inline"
       id="g11723"
       transform="matrix(5.0681026,0,0,5.2321886,-478.77098,-1788.597)">
      <rect
         ry="32.625"
         y="381.34039"
         x="135.25"
         height="65.25"
         width="60.5"
         id="rect11686"
         style="fill:#28170b;fill-opacity:1;stroke:none" />
      <path
         style="fill:#bc3e25;fill-opacity:1;stroke:none"
         d="m 145.91563,449.3404 c -19.32564,0 -35.10237,18.01874 -36.79063,35.75 l 112.75,0 c -1.68826,-17.73126 -17.46499,-35.75 -36.79063,-35.75 z"
         id="path11684"
         inkscape:connector-curvature="0"
         sodipodi:nodetypes="sccss" />
      <rect
         style="fill:#d38d5f;fill-opacity:1;stroke:none"
         id="rect11690"
         width="53"
         height="66"
         x="139"
         y="389.09039"
         ry="26" />
      <path
         style="fill:#2b1100;fill-opacity:1;stroke:none"
         d="m 159.0449,388.0904 c -5.78087,0 -11.0692,2.0154 -15.32615,5.3735 8.66787,1.19014 12.27009,12.52638 20.15804,11.84525 7.88795,-0.68113 13.34296,-11.75628 23.40446,-12.15903 -4.19061,-3.17762 -9.34075,-5.05972 -14.94866,-5.05972 z"
         id="path11692"
         inkscape:connector-curvature="0"
         sodipodi:nodetypes="sczcss" />
      <g
         id="g11694"
         transform="translate(-0.78603,184.0904)"
         style="fill:#f3e387;fill-opacity:1">
        <rect
           transform="matrix(0.70710678,0.70710678,-0.70710678,0.70710678,0,0)"
           ry="0"
           y="81.682289"
           x="290.88477"
           height="14.5"
           width="25.961493"
           id="rect11696"
           style="fill:#f3e387;fill-opacity:1;stroke:none" />
        <rect
           style="fill:#f3e387;fill-opacity:1;stroke:none"
           id="rect11698"
           width="25.961493"
           height="14.5"
           x="55.720806"
           y="316.84625"
           ry="0"
           transform="matrix(-0.70710678,0.70710678,0.70710678,0.70710678,0,0)" />
      </g>
      <path
         id="path11702"
         d="m 165.5,381.34375 c -16.7585,0 -30.25,14.55075 -30.25,32.625 0,5.75433 1.37618,11.12831 3.78125,15.8125 0.18239,7.07885 3.15104,13.42721 7.875,18 l -1.59375,1.59375 c -19.05443,0.36347 -34.51653,18.16912 -36.1875,35.71875 l 56.375,0 0,-19.1875 0,-10.8125 0,-5.75 0,-2.75 0,-65.25 z"
         style="opacity:0.2;fill:#000000;fill-opacity:1;stroke:none"
         inkscape:connector-curvature="0" />
    </g>
  </g>
</svg>
