<?xml version="1.0" encoding="UTF-8" standalone="no"?>
<!-- Created with Inkscape (http://www.inkscape.org/) -->

<svg
   xmlns:dc="http://purl.org/dc/elements/1.1/"
   xmlns:cc="http://creativecommons.org/ns#"
   xmlns:rdf="http://www.w3.org/1999/02/22-rdf-syntax-ns#"
   xmlns:svg="http://www.w3.org/2000/svg"
   xmlns="http://www.w3.org/2000/svg"
   xmlns:xlink="http://www.w3.org/1999/xlink"
   xmlns:sodipodi="http://sodipodi.sourceforge.net/DTD/sodipodi-0.dtd"
   xmlns:inkscape="http://www.inkscape.org/namespaces/inkscape"
   width="744.09448819"
   height="1052.3622047"
   id="svg4341"
   version="1.1"
   inkscape:version="0.47 r22583"
   sodipodi:docname="screwdriver.svg">
  <defs
     id="defs4343">
    <linearGradient
       id="linearGradient5214"
       inkscape:collect="always">
      <stop
         id="stop5216"
         offset="0"
         style="stop-color:#ffd400;stop-opacity:1" />
      <stop
         style="stop-color:#dcaa00;stop-opacity:1"
         offset="0.49999765"
         id="stop5218" />
      <stop
         id="stop5220"
         offset="1"
         style="stop-color:#ffd400;stop-opacity:1" />
    </linearGradient>
    <linearGradient
       inkscape:collect="always"
       id="linearGradient4420">
      <stop
         style="stop-color:#ffcc00;stop-opacity:1"
         offset="0"
         id="stop4422" />
      <stop
         id="stop4428"
         offset="0.49999765"
         style="stop-color:#d4aa00;stop-opacity:1" />
      <stop
         style="stop-color:#ffcc00;stop-opacity:1"
         offset="1"
         id="stop4424" />
    </linearGradient>
    <linearGradient
       inkscape:collect="always"
       id="linearGradient4410">
      <stop
         style="stop-color:#af8100;stop-opacity:1"
         offset="0"
         id="stop4412" />
      <stop
         id="stop4418"
         offset="0.49061236"
         style="stop-color:#ffd300;stop-opacity:1" />
      <stop
         style="stop-color:#af8100;stop-opacity:1"
         offset="1"
         id="stop4414" />
    </linearGradient>
    <linearGradient
       inkscape:collect="always"
       id="linearGradient4396">
      <stop
         style="stop-color:#000000;stop-opacity:1;"
         offset="0"
         id="stop4398" />
      <stop
         style="stop-color:#000000;stop-opacity:0;"
         offset="1"
         id="stop4400" />
    </linearGradient>
    <inkscape:perspective
       sodipodi:type="inkscape:persp3d"
       inkscape:vp_x="0 : 526.18109 : 1"
       inkscape:vp_y="0 : 1000 : 0"
       inkscape:vp_z="744.09448 : 526.18109 : 1"
       inkscape:persp3d-origin="372.04724 : 350.78739 : 1"
       id="perspective4349" />
    <inkscape:perspective
       id="perspective4325"
       inkscape:persp3d-origin="0.5 : 0.33333333 : 1"
       inkscape:vp_z="1 : 0.5 : 1"
       inkscape:vp_y="0 : 1000 : 0"
       inkscape:vp_x="0 : 0.5 : 1"
       sodipodi:type="inkscape:persp3d" />
    <linearGradient
       inkscape:collect="always"
       id="linearGradient5643">
      <stop
         style="stop-color:#ffffff;stop-opacity:1;"
         offset="0"
         id="stop5645" />
      <stop
         style="stop-color:#ffffff;stop-opacity:0;"
         offset="1"
         id="stop5647" />
    </linearGradient>
    <linearGradient
       inkscape:collect="always"
       xlink:href="#linearGradient5643"
       id="linearGradient4388"
       gradientUnits="userSpaceOnUse"
       gradientTransform="matrix(4.3751117,0,0,4.9646173,-7372.6494,-2626.1223)"
       x1="1778.7314"
       y1="607.23846"
       x2="1771.656"
       y2="607.23846" />
    <linearGradient
       inkscape:collect="always"
       xlink:href="#linearGradient4396"
       id="linearGradient4402"
       x1="386.37552"
       y1="133.11887"
       x2="390.92154"
       y2="132.55113"
       gradientUnits="userSpaceOnUse"
       gradientTransform="matrix(1.126525,0,0,1.126525,-48.440987,-67.0727)" />
    <linearGradient
       inkscape:collect="always"
       xlink:href="#linearGradient4396"
       id="linearGradient4408"
       gradientUnits="userSpaceOnUse"
       x1="386.37552"
       y1="133.11887"
       x2="390.92154"
       y2="132.55113"
       gradientTransform="matrix(-1.126525,0,0,1.126525,814.21904,-67.0727)" />
    <linearGradient
       inkscape:collect="always"
       xlink:href="#linearGradient4410"
       id="linearGradient4416"
       x1="307.08636"
       y1="723.05243"
       x2="459.44962"
       y2="723.05243"
       gradientUnits="userSpaceOnUse"
       gradientTransform="matrix(1.126525,0,0,1.126525,-48.440987,-67.0727)" />
    <linearGradient
       inkscape:collect="always"
       xlink:href="#linearGradient5214"
       id="linearGradient4426"
       x1="356.0817"
       y1="792.67822"
       x2="409.63284"
       y2="792.67822"
       gradientUnits="userSpaceOnUse"
       gradientTransform="matrix(0.7332322,0,0,1,63.951244,0)" />
    <linearGradient
       inkscape:collect="always"
       xlink:href="#linearGradient4420"
       id="linearGradient4435"
       gradientUnits="userSpaceOnUse"
       gradientTransform="matrix(0.7332322,0,0,0.24013603,63.951244,387.68479)"
       x1="356.0817"
       y1="792.67822"
       x2="409.63284"
       y2="792.67822" />
    <linearGradient
       inkscape:collect="always"
       xlink:href="#linearGradient5214"
       id="linearGradient5226"
       gradientUnits="userSpaceOnUse"
       gradientTransform="matrix(0.65320186,0,0,1,176.73429,0)"
       x1="356.0817"
       y1="792.67822"
       x2="409.63284"
       y2="792.67822" />
    <linearGradient
       inkscape:collect="always"
       xlink:href="#linearGradient4420"
       id="linearGradient5228"
       gradientUnits="userSpaceOnUse"
       gradientTransform="matrix(0.65320186,0,0,0.24013603,176.73429,387.68479)"
       x1="356.0817"
       y1="792.67822"
       x2="409.63284"
       y2="792.67822" />
    <linearGradient
       inkscape:collect="always"
       xlink:href="#linearGradient5214"
       id="linearGradient5240"
       gradientUnits="userSpaceOnUse"
       gradientTransform="matrix(0.65320186,0,0,1,176.73429,0)"
       x1="356.0817"
       y1="792.67822"
       x2="409.63284"
       y2="792.67822" />
    <linearGradient
       inkscape:collect="always"
       xlink:href="#linearGradient4420"
       id="linearGradient5242"
       gradientUnits="userSpaceOnUse"
       gradientTransform="matrix(0.65320186,0,0,0.24013603,176.73429,387.68479)"
       x1="356.0817"
       y1="792.67822"
       x2="409.63284"
       y2="792.67822" />
    <linearGradient
       inkscape:collect="always"
       xlink:href="#linearGradient5214"
       id="linearGradient5244"
       gradientUnits="userSpaceOnUse"
       gradientTransform="matrix(0.65320186,0,0,1,176.73429,0)"
       x1="356.0817"
       y1="792.67822"
       x2="409.63284"
       y2="792.67822" />
    <linearGradient
       inkscape:collect="always"
       xlink:href="#linearGradient4420"
       id="linearGradient5246"
       gradientUnits="userSpaceOnUse"
       gradientTransform="matrix(0.65320186,0,0,0.24013603,176.73429,387.68479)"
       x1="356.0817"
       y1="792.67822"
       x2="409.63284"
       y2="792.67822" />
  </defs>
  <sodipodi:namedview
     id="base"
     pagecolor="#ffffff"
     bordercolor="#666666"
     borderopacity="1.0"
     inkscape:pageopacity="0.0"
     inkscape:pageshadow="2"
     inkscape:zoom="0.35"
     inkscape:cx="1234.5259"
     inkscape:cy="367.66618"
     inkscape:document-units="px"
     inkscape:current-layer="layer1"
     showgrid="false"
     showguides="true"
     inkscape:guide-bbox="true"
     inkscape:window-width="1366"
     inkscape:window-height="706"
     inkscape:window-x="-8"
     inkscape:window-y="-8"
     inkscape:window-maximized="1" />
  <metadata
     id="metadata4346">
    <rdf:RDF>
      <cc:Work
         rdf:about="">
        <dc:format>image/svg+xml</dc:format>
        <dc:type
           rdf:resource="http://purl.org/dc/dcmitype/StillImage" />
        <dc:title />
      </cc:Work>
    </rdf:RDF>
  </metadata>
  <g
     inkscape:label="Layer 1"
     inkscape:groupmode="layer"
     id="layer1">
    <path
       sodipodi:nodetypes="ccccccccccc"
       id="path6088"
       d="m 326.62749,522.12251 c 36.55502,3.95831 73.99957,4.13612 112.45917,0 15.98054,0 28.84643,9.87559 28.84643,22.14253 l 0,24.16435 c -35.24392,39.39447 -10.50726,82.76978 0,120.9985 l 0,290.24328 c -13.67748,43.71323 -160.4651,46.34783 -170.15203,0 l 0,-290.24328 c 10.56928,-41.58097 37.03554,-82.17454 0,-120.9985 l 0,-24.16435 c 0,-12.26694 12.86545,-22.14253 28.84643,-22.14253 z"
       style="opacity:1;fill:#ffffff;fill-opacity:1;stroke:none" />
    <path
       style="fill:#cccccc;fill-opacity:1;stroke:none"
       d="m 382.85729,46.777216 c 16.71074,0 30.16334,49.057865 30.16334,66.518714 l 0,765.13622 c 0,17.46089 -13.4526,31.51786 -30.16334,31.51786 -16.71029,0 -30.16333,-14.05697 -30.16333,-31.51786 l 0,-765.13622 c 0,-17.460849 13.45304,-66.518714 30.16333,-66.518714 z"
       id="rect5633"
       sodipodi:nodetypes="cccsccc" />
    <rect
       style="fill:url(#linearGradient4388);fill-opacity:1;stroke:none"
       id="rect5641"
       width="30.93671"
       height="466.89847"
       x="378.54349"
       y="100.72204"
       ry="17.552572" />
    <path
       style="opacity:0.82692309;fill:url(#linearGradient4416);fill-opacity:1;stroke:none"
       d="m 326.62749,522.12251 c 43.89123,4.26989 79.95908,3.3242 112.45917,0 15.98054,0 28.84643,9.87559 28.84643,22.14253 l 0,24.16435 c -35.24392,39.39447 -10.50726,82.76978 0,120.9985 l 0,290.24328 c -13.67748,43.71323 -160.4651,46.34783 -170.15203,0 l 0,-290.24328 c 10.56928,-41.58097 37.03554,-82.17454 0,-120.9985 l 0,-24.16435 c 0,-12.26694 12.86545,-22.14253 28.84643,-22.14253 z"
       id="rect5620"
       sodipodi:nodetypes="ccccccccccc" />
    <path
       sodipodi:nodetypes="csccc"
       id="path5637"
       d="m 412.63945,108.89234 c 0,2.41659 -8.61756,5.13545 -12.90254,5.13545 -4.28455,0 -7.73432,-1.94543 -7.73432,-4.36202 -2.62818,-20.88562 -6.33302,-61.733348 -7.88454,-62.656862 16.61164,2.69271 28.10867,51.080631 28.5214,61.883432 z"
       style="fill:#999999;fill-opacity:1;stroke:none" />
    <path
       style="fill:url(#linearGradient4402);fill-opacity:1;stroke:none"
       d="m 386.87099,48.100849 5.12469,61.616891 c 0,2.4166 3.46031,4.36529 7.74486,4.36529 0.33566,0 0.7407,-0.0385 1.12652,-0.0704 -3.66905,-0.34314 -4.43067,-4.13687 -5.08445,-6.80944 l -4.24458,-55.471293 c -1.89011,-2.126463 -2.57066,-2.367787 -4.66704,-3.631038 z"
       id="path4391"
       sodipodi:nodetypes="ccscccc" />
    <path
       style="fill:#999999;fill-opacity:1;stroke:none"
       d="m 353.13861,108.89234 c 0,2.41659 8.61755,5.13545 12.90254,5.13545 4.28455,0 7.73431,-1.94543 7.73431,-4.36202 2.62819,-20.88562 6.33302,-61.733348 7.88455,-62.656862 -16.61164,2.69271 -28.10868,51.080631 -28.5214,61.883432 z"
       id="path4404"
       sodipodi:nodetypes="csccc" />
    <path
       sodipodi:nodetypes="ccscccc"
       id="path4406"
       d="m 378.90707,48.100849 -5.12469,61.616891 c 0,2.4166 -3.46031,4.36529 -7.74486,4.36529 -0.33566,0 -0.7407,-0.0385 -1.12652,-0.0704 3.66904,-0.34314 4.43066,-4.13687 5.08444,-6.80944 l 4.24459,-55.471293 c 1.89011,-2.126463 2.57065,-2.367787 4.66704,-3.631038 z"
       style="fill:url(#linearGradient4408);fill-opacity:1;stroke:none" />
    <g
       id="g5230"
       transform="matrix(1.126525,0,0,1.126525,-48.440987,-67.0727)">
      <path
         style="opacity:0.56730772;fill:url(#linearGradient5244);fill-opacity:1;stroke:none"
         d="m 423.22975,637.5753 7.17524,0 c 7.7019,0 13.90223,19.21092 13.90223,28.26159 l 0,265.60735 c 0,9.05067 -6.20033,16.33696 -13.90223,16.33696 l -7.17524,0 c -7.70189,0 -13.90222,-7.28629 -13.90222,-16.33696 l 0,-265.60735 c 0,-9.05067 6.20033,-28.26159 13.90222,-28.26159 z"
         id="path5222"
         sodipodi:nodetypes="ccccccccc" />
      <path
         sodipodi:nodetypes="csccscccccc"
         style="opacity:0.56730772;fill:url(#linearGradient5246);fill-opacity:1;stroke:none"
         d="m 423.23635,543.53125 c -7.46122,0 -13.52999,8.91111 -13.90096,20.1875 -0.012,0.36375 0,0.72529 0,1.09375 l 0,12 c 0,0.36846 -0.012,0.7631 0,1.15625 0.37097,12.18758 6.43974,35.6875 13.90096,35.6875 l 7.1648,0 c 7.35076,-0.0585 7.07778,-26.19013 13.90096,-36.84375 l 2.02031,-12 c 0,-11.79083 -8.21937,-21.28125 -15.92127,-21.28125 l -7.1648,0 z"
         id="path5224" />
    </g>
    <g
       id="g5234"
       transform="matrix(-1.126525,0,0,1.126525,815.69213,-67.0727)">
      <path
         sodipodi:nodetypes="ccccccccc"
         id="path5236"
         d="m 423.22975,637.5753 7.17524,0 c 7.7019,0 13.90223,19.21092 13.90223,28.26159 l 0,265.60735 c 0,9.05067 -6.20033,16.33696 -13.90223,16.33696 l -7.17524,0 c -7.70189,0 -13.90222,-7.28629 -13.90222,-16.33696 l 0,-265.60735 c 0,-9.05067 6.20033,-28.26159 13.90222,-28.26159 z"
         style="opacity:0.56730772;fill:url(#linearGradient5240);fill-opacity:1;stroke:none" />
      <path
         id="path5238"
         d="m 423.23635,543.53125 c -7.46122,0 -13.52999,8.91111 -13.90096,20.1875 -0.012,0.36375 0,0.72529 0,1.09375 l 0,12 c 0,0.36846 -0.012,0.7631 0,1.15625 0.37097,12.18758 6.43974,35.6875 13.90096,35.6875 l 7.1648,0 c 7.35076,-0.0585 7.07778,-26.19013 13.90096,-36.84375 l 2.02031,-12 c 0,-11.79083 -8.21937,-21.28125 -15.92127,-21.28125 l -7.1648,0 z"
         style="opacity:0.56730772;fill:url(#linearGradient5242);fill-opacity:1;stroke:none"
         sodipodi:nodetypes="csccscccccc" />
    </g>
  </g>
</svg>
