<?xml version="1.0" encoding="UTF-8" standalone="no"?>
<!-- Created with Inkscape (http://www.inkscape.org/) -->

<svg
   xmlns:dc="http://purl.org/dc/elements/1.1/"
   xmlns:cc="http://creativecommons.org/ns#"
   xmlns:rdf="http://www.w3.org/1999/02/22-rdf-syntax-ns#"
   xmlns:svg="http://www.w3.org/2000/svg"
   xmlns="http://www.w3.org/2000/svg"
   xmlns:xlink="http://www.w3.org/1999/xlink"
   xmlns:sodipodi="http://sodipodi.sourceforge.net/DTD/sodipodi-0.dtd"
   xmlns:inkscape="http://www.inkscape.org/namespaces/inkscape"
   width="744.09448819"
   height="1052.3622047"
   id="svg4898"
   version="1.1"
   inkscape:version="0.48.2 r9819"
   sodipodi:docname="watch001.svg">
  <defs
     id="defs4900">
    <linearGradient
       inkscape:collect="always"
       id="linearGradient5501">
      <stop
         style="stop-color:#d4aa00;stop-opacity:1"
         offset="0"
         id="stop5503" />
      <stop
         id="stop5525"
         offset="0.48694432"
         style="stop-color:#ffcc00;stop-opacity:1" />
      <stop
         style="stop-color:#d4aa00;stop-opacity:1"
         offset="1"
         id="stop5505" />
    </linearGradient>
    <linearGradient
       inkscape:collect="always"
       id="linearGradient5493">
      <stop
         style="stop-color:#ffd42a;stop-opacity:1"
         offset="0"
         id="stop5495" />
      <stop
         style="stop-color:#ffeb00;stop-opacity:1"
         offset="1"
         id="stop5497" />
    </linearGradient>
    <inkscape:perspective
       sodipodi:type="inkscape:persp3d"
       inkscape:vp_x="0 : 526.18109 : 1"
       inkscape:vp_y="0 : 1000 : 0"
       inkscape:vp_z="744.09448 : 526.18109 : 1"
       inkscape:persp3d-origin="372.04724 : 350.78739 : 1"
       id="perspective4906" />
    <inkscape:perspective
       id="perspective4916"
       inkscape:persp3d-origin="0.5 : 0.33333333 : 1"
       inkscape:vp_z="1 : 0.5 : 1"
       inkscape:vp_y="0 : 1000 : 0"
       inkscape:vp_x="0 : 0.5 : 1"
       sodipodi:type="inkscape:persp3d" />
    <filter
       inkscape:collect="always"
       id="filter5467">
      <feGaussianBlur
         inkscape:collect="always"
         stdDeviation="4.2193907"
         id="feGaussianBlur5469" />
    </filter>
    <filter
       inkscape:collect="always"
       id="filter5527">
      <feGaussianBlur
         inkscape:collect="always"
         stdDeviation="0.84289383"
         id="feGaussianBlur5529" />
    </filter>
    <linearGradient
       inkscape:collect="always"
       xlink:href="#linearGradient5501"
       id="linearGradient5551"
       gradientUnits="userSpaceOnUse"
       x1="157.85565"
       y1="290.59021"
       x2="473.57144"
       y2="290.59021" />
    <linearGradient
       inkscape:collect="always"
       xlink:href="#linearGradient5493"
       id="linearGradient5553"
       gradientUnits="userSpaceOnUse"
       x1="188.85448"
       y1="276.44629"
       x2="434.28571"
       y2="250.93361" />
    <linearGradient
       inkscape:collect="always"
       xlink:href="#linearGradient5501"
       id="linearGradient5555"
       gradientUnits="userSpaceOnUse"
       x1="157.85565"
       y1="290.59021"
       x2="473.57144"
       y2="290.59021" />
    <linearGradient
       inkscape:collect="always"
       xlink:href="#linearGradient5493"
       id="linearGradient5557"
       gradientUnits="userSpaceOnUse"
       x1="188.85448"
       y1="276.44629"
       x2="434.28571"
       y2="250.93361" />
    <linearGradient
       inkscape:collect="always"
       xlink:href="#linearGradient5501"
       id="linearGradient5571"
       gradientUnits="userSpaceOnUse"
       x1="157.85565"
       y1="290.59021"
       x2="473.57144"
       y2="290.59021" />
    <linearGradient
       inkscape:collect="always"
       xlink:href="#linearGradient5493"
       id="linearGradient5573"
       gradientUnits="userSpaceOnUse"
       x1="188.85448"
       y1="276.44629"
       x2="434.28571"
       y2="250.93361" />
    <filter
       inkscape:collect="always"
       id="filter5683"
       x="-0.083626822"
       width="1.1672536"
       y="-0.11267038"
       height="1.2253408">
      <feGaussianBlur
         inkscape:collect="always"
         stdDeviation="13.445625"
         id="feGaussianBlur5685" />
    </filter>
  </defs>
  <sodipodi:namedview
     id="base"
     pagecolor="#ffffff"
     bordercolor="#666666"
     borderopacity="1.0"
     inkscape:pageopacity="0.0"
     inkscape:pageshadow="2"
     inkscape:zoom="0.35"
     inkscape:cx="-24.267579"
     inkscape:cy="486.39121"
     inkscape:document-units="px"
     inkscape:current-layer="layer2"
     showgrid="false"
     inkscape:window-width="1600"
     inkscape:window-height="838"
     inkscape:window-x="-8"
     inkscape:window-y="-8"
     inkscape:window-maximized="1" />
  <metadata
     id="metadata4903">
    <rdf:RDF>
      <cc:Work
         rdf:about="">
        <dc:format>image/svg+xml</dc:format>
        <dc:type
           rdf:resource="http://purl.org/dc/dcmitype/StillImage" />
        <dc:title></dc:title>
      </cc:Work>
    </rdf:RDF>
  </metadata>
  <g
     inkscape:groupmode="layer"
     id="layer2"
     inkscape:label="Layer"
     style="display:inline">
    <g
       style="display:inline"
       id="g4262"
       inkscape:export-filename="C:\Users\alejandro\Documents\wwwroot\sites\quality-bits\fw_core\resources\admin\views\images\status_pending.png"
       inkscape:export-xdpi="90"
       inkscape:export-ydpi="90"
       transform="matrix(28.857144,0,0,28.857144,-6643.7856,-6492.6372)">
      <path
         sodipodi:type="arc"
         style="fill:#006680;fill-opacity:1;stroke:none"
         id="path3364"
         sodipodi:cx="95.125"
         sodipodi:cy="244.62498"
         sodipodi:rx="7.875"
         sodipodi:ry="7.875"
         d="m 103,244.62498 c 0,4.34925 -3.525758,7.875 -7.875,7.875 -4.349242,0 -7.875,-3.52575 -7.875,-7.875 0,-4.34924 3.525758,-7.875 7.875,-7.875 4.349242,0 7.875,3.52576 7.875,7.875 z"
         transform="matrix(1.2698412,0,0,1.2698412,122.45634,-68.134917)" />
      <path
         transform="matrix(0.95632359,0,0,0.95632359,152.2797,8.559329)"
         d="m 103,244.62498 c 0,4.34925 -3.525758,7.875 -7.875,7.875 -4.349242,0 -7.875,-3.52575 -7.875,-7.875 0,-4.34924 3.525758,-7.875 7.875,-7.875 4.349242,0 7.875,3.52576 7.875,7.875 z"
         sodipodi:ry="7.875"
         sodipodi:rx="7.875"
         sodipodi:cy="244.62498"
         sodipodi:cx="95.125"
         id="path3373"
         style="fill:#dbe3e2;fill-opacity:1;stroke:none"
         sodipodi:type="arc" />
      <path
         inkscape:connector-curvature="0"
         sodipodi:nodetypes="cscsc"
         id="path3368"
         d="m 234.20833,245.08925 c 0.9134,4.16884 4.59449,7.29167 9.04166,7.29167 4.44718,0 8.12827,-3.12283 9.04167,-7.29167 -1.90105,3.00745 -5.22968,5.80769 -9.04167,5.80769 -3.81198,0 -7.14061,-2.80024 -9.04166,-5.80769 z"
         style="fill:#00222b;fill-opacity:1;stroke:none" />
      <path
         transform="matrix(1.3411,0,0,1.3411,-71.573233,-86.069516)"
         d="m 234.625,239.5625 a 0.26519158,0.26519158 0 0 0 -0.0937,0.0625 0.26519158,0.26519158 0 0 0 -0.0312,0.0312 0.26519158,0.26519158 0 0 0 -0.0312,0.125 0.26519158,0.26519158 0 0 0 0,0.0312 l 0,0.96875 a 0.26519158,0.26519158 0 0 0 0,0.0937 0.26519158,0.26519158 0 0 0 0.0937,0.125 0.26519158,0.26519158 0 0 0 0.125,0.0312 0.26519158,0.26519158 0 0 0 0.0312,0 c 0.0143,-1.5e-4 0.0134,0 0.0312,0 0.018,0 0.017,-1.5e-4 0.0312,0 a 0.26519158,0.26519158 0 0 0 0.0625,0 0.26519158,0.26519158 0 0 0 0.0937,-0.0312 0.26519158,0.26519158 0 0 0 0.0625,-0.0625 0.26519158,0.26519158 0 0 0 0.0312,-0.0937 0.26519158,0.26519158 0 0 0 0,-0.0625 l 0,-0.96875 a 0.26519158,0.26519158 0 0 0 0,-0.0937 0.26519158,0.26519158 0 0 0 -0.0937,-0.125 0.26519158,0.26519158 0 0 0 -0.125,-0.0312 0.26519158,0.26519158 0 0 0 -0.0312,0 c -0.017,-1.4e-4 -0.0172,0 -0.0312,0 -0.0141,0 -0.0143,-1.4e-4 -0.0312,0 a 0.26519158,0.26519158 0 0 0 -0.0937,0 z m -2.5625,0.6875 a 0.26519158,0.26519158 0 0 0 0,0.0312 c -0.01,0.004 -0.0384,0.0171 -0.0625,0.0312 a 0.26519158,0.26519158 0 0 0 -0.0625,0.0312 0.26519158,0.26519158 0 0 0 -0.0625,0.21875 0.26519158,0.26519158 0 0 0 0.0312,0.0937 L 232.375,241.5 a 0.26519158,0.26519158 0 0 0 0.0312,0.0625 0.26519158,0.26519158 0 0 0 0.0312,0.0312 0.26519158,0.26519158 0 0 0 0.125,0.0312 0.26519158,0.26519158 0 0 0 0.15625,-0.0312 c 0.0603,-0.0359 0.0916,-0.0613 0.0937,-0.0625 a 0.26519158,0.26519158 0 0 0 0.0625,-0.0312 0.26519158,0.26519158 0 0 0 0.0312,-0.0312 0.26519158,0.26519158 0 0 0 0.0312,-0.125 0.26519158,0.26519158 0 0 0 -0.0312,-0.15625 l -0.5,-0.8125 a 0.26519158,0.26519158 0 0 0 -0.0312,-0.0625 0.26519158,0.26519158 0 0 0 -0.0937,-0.0625 0.26519158,0.26519158 0 0 0 -0.15625,0 0.26519158,0.26519158 0 0 0 -0.0625,0 z m 5.15625,0 a 0.26519158,0.26519158 0 0 0 -0.0625,0.0312 0.26519158,0.26519158 0 0 0 -0.0625,0.0625 0.26519158,0.26519158 0 0 0 0,0.0312 l -0.5,0.8125 a 0.26519158,0.26519158 0 0 0 -0.0312,0.125 0.26519158,0.26519158 0 0 0 0.0625,0.1875 0.26519158,0.26519158 0 0 0 0.0625,0.0312 c 0.003,0.002 0.034,0.0269 0.0937,0.0625 a 0.26519158,0.26519158 0 0 0 0.15625,0.0312 0.26519158,0.26519158 0 0 0 0.125,-0.0312 0.26519158,0.26519158 0 0 0 0.0312,-0.0312 0.26519158,0.26519158 0 0 0 0.0312,-0.0625 l 0.46875,-0.84375 a 0.26519158,0.26519158 0 0 0 0.0312,-0.0312 0.26519158,0.26519158 0 0 0 0,-0.15625 0.26519158,0.26519158 0 0 0 -0.0312,-0.0937 0.26519158,0.26519158 0 0 0 -0.0625,-0.0625 0.26519158,0.26519158 0 0 0 -0.0312,0 c -0.0241,-0.0143 -0.0526,-0.0271 -0.0625,-0.0312 a 0.26519158,0.26519158 0 0 0 -0.0312,-0.0312 0.26519158,0.26519158 0 0 0 -0.15625,0 0.26519158,0.26519158 0 0 0 -0.0312,0 z m -7.03125,1.875 a 0.26519158,0.26519158 0 0 0 -0.0625,0.0312 0.26519158,0.26519158 0 0 0 -0.0625,0.0625 0.26519158,0.26519158 0 0 0 0,0.0312 c -0.0144,0.0242 -0.0271,0.0527 -0.0312,0.0625 a 0.26519158,0.26519158 0 0 0 -0.0312,0.0312 0.26519158,0.26519158 0 0 0 0,0.15625 0.26519158,0.26519158 0 0 0 0.0312,0.0937 0.26519158,0.26519158 0 0 0 0.0625,0.0625 0.26519158,0.26519158 0 0 0 0.0312,0 l 0.8125,0.5 a 0.26519158,0.26519158 0 0 0 0.125,0.0312 0.26519158,0.26519158 0 0 0 0.1875,-0.0625 0.26519158,0.26519158 0 0 0 0.0312,-0.0625 c 0.002,-0.003 0.0269,-0.034 0.0625,-0.0937 a 0.26519158,0.26519158 0 0 0 0.0312,-0.15625 0.26519158,0.26519158 0 0 0 -0.0312,-0.125 0.26519158,0.26519158 0 0 0 -0.0312,-0.0312 0.26519158,0.26519158 0 0 0 -0.0625,-0.0312 l -0.84375,-0.46875 a 0.26519158,0.26519158 0 0 0 -0.0312,-0.0312 0.26519158,0.26519158 0 0 0 -0.15625,0 0.26519158,0.26519158 0 0 0 -0.0312,0 z m 8.90625,0 a 0.26519158,0.26519158 0 0 0 0,0.0312 L 238.25,242.625 a 0.26519158,0.26519158 0 0 0 -0.0625,0.0312 0.26519158,0.26519158 0 0 0 -0.0312,0.0312 0.26519158,0.26519158 0 0 0 -0.0312,0.125 0.26519158,0.26519158 0 0 0 0.0312,0.15625 c 0.0361,0.0606 0.0617,0.0923 0.0625,0.0937 a 0.26519158,0.26519158 0 0 0 0.0312,0.0625 0.26519158,0.26519158 0 0 0 0.0312,0.0312 0.26519158,0.26519158 0 0 0 0.125,0.0312 0.26519158,0.26519158 0 0 0 0.15625,-0.0312 l 0.8125,-0.5 a 0.26519158,0.26519158 0 0 0 0.0625,-0.0312 0.26519158,0.26519158 0 0 0 0.0625,-0.0937 0.26519158,0.26519158 0 0 0 0,-0.15625 0.26519158,0.26519158 0 0 0 -0.0312,-0.0625 c -0.004,-0.01 -0.0171,-0.0384 -0.0312,-0.0625 a 0.26519158,0.26519158 0 0 0 -0.0312,-0.0625 0.26519158,0.26519158 0 0 0 -0.21875,-0.0625 0.26519158,0.26519158 0 0 0 -0.0937,0 z m -9.625,2.59375 a 0.26519158,0.26519158 0 0 0 -0.125,0.0937 0.26519158,0.26519158 0 0 0 -0.0312,0.125 0.26519158,0.26519158 0 0 0 0,0.0312 c -1.4e-4,0.017 0,0.0172 0,0.0312 0,0.0141 -1.4e-4,0.0143 0,0.0312 a 0.26519158,0.26519158 0 0 0 0,0.0937 0.26519158,0.26519158 0 0 0 0.0625,0.0937 0.26519158,0.26519158 0 0 0 0.0312,0.0312 0.26519158,0.26519158 0 0 0 0.125,0.0312 0.26519158,0.26519158 0 0 0 0.0312,0 l 0.96875,0 a 0.26519158,0.26519158 0 0 0 0.0937,0 0.26519158,0.26519158 0 0 0 0.125,-0.0937 0.26519158,0.26519158 0 0 0 0.0312,-0.125 0.26519158,0.26519158 0 0 0 0,-0.0312 c -1.5e-4,-0.0143 0,-0.0133 0,-0.0312 0,-0.018 -1.5e-4,-0.0169 0,-0.0312 a 0.26519158,0.26519158 0 0 0 0,-0.0625 0.26519158,0.26519158 0 0 0 -0.0312,-0.0937 0.26519158,0.26519158 0 0 0 -0.0625,-0.0625 0.26519158,0.26519158 0 0 0 -0.0937,-0.0312 0.26519158,0.26519158 0 0 0 -0.0625,0 l -0.96875,0 a 0.26519158,0.26519158 0 0 0 -0.0937,0 z m 9.40625,0 a 0.26519158,0.26519158 0 0 0 -0.125,0.0937 0.26519158,0.26519158 0 0 0 -0.0312,0.125 0.26519158,0.26519158 0 0 0 0,0.0312 c 1.5e-4,0.0143 0,0.0134 0,0.0312 0,0.018 1.5e-4,0.0169 0,0.0312 a 0.26519158,0.26519158 0 0 0 0,0.0625 0.26519158,0.26519158 0 0 0 0.0312,0.0937 0.26519158,0.26519158 0 0 0 0.0625,0.0625 0.26519158,0.26519158 0 0 0 0.0937,0.0312 0.26519158,0.26519158 0 0 0 0.0625,0 l 0.96875,0 a 0.26519158,0.26519158 0 0 0 0.0937,0 0.26519158,0.26519158 0 0 0 0.125,-0.0937 0.26519158,0.26519158 0 0 0 0.0312,-0.125 0.26519158,0.26519158 0 0 0 0,-0.0312 c 1.4e-4,-0.017 0,-0.0172 0,-0.0312 0,-0.014 1.4e-4,-0.0143 0,-0.0312 a 0.26519158,0.26519158 0 0 0 0,-0.0937 0.26519158,0.26519158 0 0 0 -0.0625,-0.0937 0.26519158,0.26519158 0 0 0 -0.0312,-0.0312 0.26519158,0.26519158 0 0 0 -0.125,-0.0312 0.26519158,0.26519158 0 0 0 -0.0312,0 l -0.96875,0 a 0.26519158,0.26519158 0 0 0 -0.0937,0 z m -7.9375,2.09375 a 0.26519158,0.26519158 0 0 0 0,0.0312 l -0.8125,0.5 a 0.26519158,0.26519158 0 0 0 -0.0625,0.0312 0.26519158,0.26519158 0 0 0 -0.0625,0.0937 0.26519158,0.26519158 0 0 0 0,0.15625 0.26519158,0.26519158 0 0 0 0.0312,0.0625 c 0.004,0.01 0.0171,0.0384 0.0312,0.0625 a 0.26519158,0.26519158 0 0 0 0.0312,0.0625 0.26519158,0.26519158 0 0 0 0.21875,0.0625 0.26519158,0.26519158 0 0 0 0.0937,-0.0312 L 231.25,247.375 a 0.26519158,0.26519158 0 0 0 0.0625,-0.0312 0.26519158,0.26519158 0 0 0 0.0312,-0.0312 0.26519158,0.26519158 0 0 0 0.0312,-0.125 0.26519158,0.26519158 0 0 0 -0.0312,-0.15625 c -0.0359,-0.0603 -0.0613,-0.0916 -0.0625,-0.0937 a 0.26519158,0.26519158 0 0 0 -0.0312,-0.0625 0.26519158,0.26519158 0 0 0 -0.0312,-0.0312 0.26519158,0.26519158 0 0 0 -0.125,-0.0312 0.26519158,0.26519158 0 0 0 -0.15625,0 z m 7.375,0 a 0.26519158,0.26519158 0 0 0 -0.0625,0.0625 0.26519158,0.26519158 0 0 0 -0.0312,0.0625 c -0.002,0.003 -0.0269,0.034 -0.0625,0.0937 a 0.26519158,0.26519158 0 0 0 -0.0312,0.15625 0.26519158,0.26519158 0 0 0 0.0312,0.125 0.26519158,0.26519158 0 0 0 0.0312,0.0312 0.26519158,0.26519158 0 0 0 0.0625,0.0312 l 0.84375,0.46875 a 0.26519158,0.26519158 0 0 0 0.0312,0.0312 0.26519158,0.26519158 0 0 0 0.15625,0 0.26519158,0.26519158 0 0 0 0.0937,-0.0312 0.26519158,0.26519158 0 0 0 0.0625,-0.0625 0.26519158,0.26519158 0 0 0 0,-0.0312 c 0.0143,-0.0241 0.0271,-0.0526 0.0312,-0.0625 a 0.26519158,0.26519158 0 0 0 0.0312,-0.0312 0.26519158,0.26519158 0 0 0 0,-0.15625 0.26519158,0.26519158 0 0 0 -0.0312,-0.0937 0.26519158,0.26519158 0 0 0 -0.0625,-0.0625 0.26519158,0.26519158 0 0 0 -0.0312,0 l -0.8125,-0.5 a 0.26519158,0.26519158 0 0 0 -0.125,-0.0312 0.26519158,0.26519158 0 0 0 -0.125,0 z m -5.84375,1.5625 a 0.26519158,0.26519158 0 0 0 -0.0312,0.0312 0.26519158,0.26519158 0 0 0 -0.0312,0.0312 0.26519158,0.26519158 0 0 0 -0.0312,0.0625 l -0.46875,0.84375 a 0.26519158,0.26519158 0 0 0 -0.0312,0.0312 0.26519158,0.26519158 0 0 0 0,0.15625 0.26519158,0.26519158 0 0 0 0.0312,0.0937 0.26519158,0.26519158 0 0 0 0.0625,0.0625 0.26519158,0.26519158 0 0 0 0.0312,0 c 0.0241,0.0143 0.0526,0.0271 0.0625,0.0312 a 0.26519158,0.26519158 0 0 0 0.0312,0.0312 0.26519158,0.26519158 0 0 0 0.15625,0 0.26519158,0.26519158 0 0 0 0.0937,-0.0312 0.26519158,0.26519158 0 0 0 0.0625,-0.0625 0.26519158,0.26519158 0 0 0 0,-0.0312 l 0.5,-0.8125 a 0.26519158,0.26519158 0 0 0 0.0312,-0.125 0.26519158,0.26519158 0 0 0 -0.0625,-0.1875 0.26519158,0.26519158 0 0 0 -0.0625,-0.0312 c -0.003,-0.002 -0.0333,-0.0267 -0.0937,-0.0625 a 0.26519158,0.26519158 0 0 0 -0.15625,-0.0312 0.26519158,0.26519158 0 0 0 -0.0937,0 z m 4.3125,0 a 0.26519158,0.26519158 0 0 0 0,0.0312 c -0.0606,0.0361 -0.0923,0.0617 -0.0937,0.0625 a 0.26519158,0.26519158 0 0 0 -0.0625,0.0312 0.26519158,0.26519158 0 0 0 -0.0312,0.0312 0.26519158,0.26519158 0 0 0 -0.0312,0.125 0.26519158,0.26519158 0 0 0 0.0312,0.15625 l 0.5,0.8125 a 0.26519158,0.26519158 0 0 0 0.0312,0.0625 0.26519158,0.26519158 0 0 0 0.0937,0.0625 0.26519158,0.26519158 0 0 0 0.15625,0 0.26519158,0.26519158 0 0 0 0.0625,-0.0312 c 0.01,-0.004 0.0384,-0.0171 0.0625,-0.0312 a 0.26519158,0.26519158 0 0 0 0.0625,-0.0312 0.26519158,0.26519158 0 0 0 0.0625,-0.21875 0.26519158,0.26519158 0 0 0 -0.0312,-0.0937 L 237.125,248.5 a 0.26519158,0.26519158 0 0 0 -0.0312,-0.0625 0.26519158,0.26519158 0 0 0 -0.0312,-0.0312 0.26519158,0.26519158 0 0 0 -0.125,-0.0312 0.26519158,0.26519158 0 0 0 -0.15625,0 z m -2.15625,0.59375 a 0.26519158,0.26519158 0 0 0 -0.0625,0.0312 0.26519158,0.26519158 0 0 0 -0.0625,0.0625 0.26519158,0.26519158 0 0 0 -0.0312,0.0937 0.26519158,0.26519158 0 0 0 0,0.0625 l 0,0.96875 a 0.26519158,0.26519158 0 0 0 0,0.0937 0.26519158,0.26519158 0 0 0 0.0937,0.125 0.26519158,0.26519158 0 0 0 0.125,0.0312 0.26519158,0.26519158 0 0 0 0.0312,0 c 0.017,1.4e-4 0.0172,0 0.0312,0 0.0141,0 0.0143,1.4e-4 0.0312,0 a 0.26519158,0.26519158 0 0 0 0.0937,0 0.26519158,0.26519158 0 0 0 0.0937,-0.0625 0.26519158,0.26519158 0 0 0 0.0312,-0.0312 0.26519158,0.26519158 0 0 0 0.0312,-0.125 0.26519158,0.26519158 0 0 0 0,-0.0312 l 0,-0.96875 a 0.26519158,0.26519158 0 0 0 0,-0.0937 0.26519158,0.26519158 0 0 0 -0.0937,-0.125 0.26519158,0.26519158 0 0 0 -0.125,-0.0312 0.26519158,0.26519158 0 0 0 -0.0312,0 c -0.0143,1.5e-4 -0.0133,0 -0.0312,0 -0.0179,0 -0.0169,1.5e-4 -0.0312,0 a 0.26519158,0.26519158 0 0 0 -0.0625,0 0.26519158,0.26519158 0 0 0 -0.0312,0 z"
         id="path4167"
         style="fill:#000000;fill-opacity:1;stroke:none"
         inkscape:original="M 234.71875 239.8125 L 234.71875 240.78125 C 234.73485 240.78108 234.734 240.78125 234.75 240.78125 C 234.7661 240.78125 234.76525 240.78108 234.78125 240.78125 L 234.78125 239.8125 C 234.76575 239.81237 234.7655 239.8125 234.75 239.8125 C 234.7344 239.8125 234.73415 239.81237 234.71875 239.8125 z M 232.1875 240.5 C 232.1568 240.5173 232.1554 240.51335 232.125 240.53125 L 232.59375 241.375 C 232.62685 241.3553 232.6537 241.3313 232.6875 241.3125 L 232.1875 240.5 z M 237.3125 240.5 L 236.8125 241.3125 C 236.8462 241.3314 236.87315 241.3553 236.90625 241.375 L 237.375 240.53125 C 237.3446 240.51325 237.3433 240.5173 237.3125 240.5 z M 230.28125 242.375 C 230.26325 242.4054 230.2673 242.4068 230.25 242.4375 L 231.0625 242.9375 C 231.0814 242.9038 231.1053 242.87685 231.125 242.84375 L 230.28125 242.375 z M 239.21875 242.375 L 238.375 242.84375 C 238.3947 242.87685 238.4188 242.9037 238.4375 242.9375 L 239.25 242.4375 C 239.2327 242.4068 239.23665 242.4054 239.21875 242.375 z M 229.5625 244.96875 C 229.56237 244.98425 229.5625 244.9845 229.5625 245 C 229.5625 245.0156 229.56237 245.01585 229.5625 245.03125 L 230.53125 245.03125 C 230.53108 245.01515 230.53125 245.0161 230.53125 245 C 230.53125 244.9839 230.53108 244.98485 230.53125 244.96875 L 229.5625 244.96875 z M 238.96875 244.96875 C 238.96892 244.98485 238.96875 244.984 238.96875 245 C 238.96875 245.0161 238.96892 245.01515 238.96875 245.03125 L 239.9375 245.03125 C 239.93763 245.01575 239.9375 245.0155 239.9375 245 C 239.9375 244.9845 239.93763 244.98415 239.9375 244.96875 L 238.96875 244.96875 z M 231.0625 247.0625 L 230.25 247.5625 C 230.2673 247.5932 230.26335 247.5946 230.28125 247.625 L 231.125 247.15625 C 231.1053 247.12315 231.0813 247.0963 231.0625 247.0625 z M 238.4375 247.0625 C 238.4186 247.0962 238.3947 247.12315 238.375 247.15625 L 239.21875 247.625 C 239.23675 247.5946 239.2327 247.5933 239.25 247.5625 L 238.4375 247.0625 z M 232.59375 248.625 L 232.125 249.46875 C 232.1554 249.48675 232.1567 249.4827 232.1875 249.5 L 232.6875 248.6875 C 232.6538 248.6686 232.62685 248.6446 232.59375 248.625 z M 236.90625 248.625 C 236.87315 248.6447 236.8463 248.6688 236.8125 248.6875 L 237.3125 249.5 C 237.3432 249.4827 237.3446 249.48665 237.375 249.46875 L 236.90625 248.625 z M 234.71875 249.21875 L 234.71875 250.1875 C 234.73425 250.18763 234.7345 250.1875 234.75 250.1875 C 234.7656 250.1875 234.76585 250.18763 234.78125 250.1875 L 234.78125 249.21875 C 234.76515 249.21892 234.7661 249.21875 234.75 249.21875 C 234.734 249.21875 234.73485 249.21892 234.71875 249.21875 z "
         inkscape:radius="0.26516506"
         sodipodi:type="inkscape:offset" />
      <path
         sodipodi:type="arc"
         style="fill:#ff0000;fill-opacity:1;stroke:none"
         id="path4173"
         sodipodi:cx="95.125"
         sodipodi:cy="244.62498"
         sodipodi:rx="7.875"
         sodipodi:ry="7.875"
         d="m 103,244.62498 c 0,4.34925 -3.525758,7.875 -7.875,7.875 -4.349242,0 -7.875,-3.52575 -7.875,-7.875 0,-4.34924 3.525758,-7.875 7.875,-7.875 4.349242,0 7.875,3.52576 7.875,7.875 z"
         transform="matrix(0.12034476,0,0,0.12034476,231.80218,213.06064)" />
      <path
         inkscape:connector-curvature="0"
         id="rect4175"
         d="m 243.20833,238.58333 -0.75,3.58333 1.5,0 -0.75,-3.58333 z"
         style="fill:#ff0000;fill-opacity:1;stroke:none" />
      <path
         inkscape:connector-curvature="0"
         id="rect4177"
         d="m 249.54166,242.5 -6.5,-0.75 0,1.5 6.5,-0.75 z"
         style="fill:#ff0000;fill-opacity:1;stroke:none" />
      <path
         transform="matrix(0.55026453,0,0,0.55026453,187.90607,103.89152)"
         d="m 103,244.62498 c 0,4.34925 -3.525758,7.875 -7.875,7.875 -4.349242,0 -7.875,-3.52575 -7.875,-7.875 0,-4.34924 3.525758,-7.875 7.875,-7.875 4.349242,0 7.875,3.52576 7.875,7.875 z"
         sodipodi:ry="7.875"
         sodipodi:rx="7.875"
         sodipodi:cy="244.62498"
         sodipodi:cx="95.125"
         id="path3366"
         style="opacity:0.4;fill:#ffffff;fill-opacity:1;stroke:none"
         sodipodi:type="arc" />
    </g>
  </g>
</svg>
