<?xml version="1.0" encoding="UTF-8" standalone="no"?>
<!-- Created with Inkscape (http://www.inkscape.org/) -->

<svg
   xmlns:dc="http://purl.org/dc/elements/1.1/"
   xmlns:cc="http://creativecommons.org/ns#"
   xmlns:rdf="http://www.w3.org/1999/02/22-rdf-syntax-ns#"
   xmlns:svg="http://www.w3.org/2000/svg"
   xmlns="http://www.w3.org/2000/svg"
   xmlns:sodipodi="http://sodipodi.sourceforge.net/DTD/sodipodi-0.dtd"
   xmlns:inkscape="http://www.inkscape.org/namespaces/inkscape"
   width="744.09448819"
   height="1052.3622047"
   id="svg2"
   version="1.1"
   inkscape:version="0.47 r22583"
   sodipodi:docname="New document 1">
  <defs
     id="defs4">
    <inkscape:perspective
       sodipodi:type="inkscape:persp3d"
       inkscape:vp_x="0 : 526.18109 : 1"
       inkscape:vp_y="0 : 1000 : 0"
       inkscape:vp_z="744.09448 : 526.18109 : 1"
       inkscape:persp3d-origin="372.04724 : 350.78739 : 1"
       id="perspective10" />
    <inkscape:perspective
       id="perspective2859"
       inkscape:persp3d-origin="0.5 : 0.33333333 : 1"
       inkscape:vp_z="1 : 0.5 : 1"
       inkscape:vp_y="0 : 1000 : 0"
       inkscape:vp_x="0 : 0.5 : 1"
       sodipodi:type="inkscape:persp3d" />
  </defs>
  <sodipodi:namedview
     id="base"
     pagecolor="#ffffff"
     bordercolor="#666666"
     borderopacity="1.0"
     inkscape:pageopacity="0.0"
     inkscape:pageshadow="2"
     inkscape:zoom="0.98994949"
     inkscape:cx="600.12357"
     inkscape:cy="742.71976"
     inkscape:document-units="px"
     inkscape:current-layer="layer1"
     showgrid="false"
     inkscape:window-width="1366"
     inkscape:window-height="706"
     inkscape:window-x="-8"
     inkscape:window-y="-8"
     inkscape:window-maximized="1"
     showguides="true"
     inkscape:guide-bbox="true" />
  <metadata
     id="metadata7">
    <rdf:RDF>
      <cc:Work
         rdf:about="">
        <dc:format>image/svg+xml</dc:format>
        <dc:type
           rdf:resource="http://purl.org/dc/dcmitype/StillImage" />
        <dc:title></dc:title>
      </cc:Work>
    </rdf:RDF>
  </metadata>
  <g
     inkscape:label="Layer 1"
     inkscape:groupmode="layer"
     id="layer1">
    <g
       id="g2903"
       transform="translate(2.0203038,-18.597966)">
      <path
         id="path2892"
         d="m 311.625,203.0625 c -23.98935,0 -43.4375,19.44815 -43.4375,43.4375 0,23.98935 19.44815,43.4375 43.4375,43.4375 23.98935,0 43.4375,-19.44815 43.4375,-43.4375 0,-23.98935 -19.44815,-43.4375 -43.4375,-43.4375 z m 0,3.5625 c 22.03673,0 39.90625,17.83827 39.90625,39.875 0,22.03673 -17.86952,39.90625 -39.90625,39.90625 -22.03673,0 -39.90625,-17.86952 -39.90625,-39.90625 0,-22.03673 17.86952,-39.875 39.90625,-39.875 z"
         style="fill:#000000;fill-opacity:1;stroke:none" />
      <path
         id="path2888"
         d="m 311.625,210.15625 c -20.08411,0 -36.34375,16.25964 -36.34375,36.34375 0,7.49096 2.24254,14.46453 6.125,20.25 -0.11277,-0.96695 -0.12373,-1.99894 -0.0625,-3.125 L 287.25,234.4375 c 0.13681,-0.67716 0.10831,-1.35402 -0.0625,-2.03125 -0.17082,-0.67716 -0.45905,-1.13868 -0.875,-1.4375 -0.32477,-0.25887 -0.92425,-0.46424 -1.78125,-0.59375 -0.85703,-0.12942 -1.53471,-0.21012 -2.0625,-0.25 l 0.375,-1.90625 10.90625,-0.6875 0.34375,0.4375 -3.9375,19.40625 0.1875,0.0625 c 1.49606,-1.31454 3.06471,-2.28018 4.65625,-2.9375 1.59149,-0.65725 3.09087,-0.99997 4.5,-1 3.61202,3e-5 6.31441,1.44437 8.15625,4.3125 1.38132,2.15113 1.98816,4.78498 1.8125,7.90625 L 313.75,234.4375 c 0.13681,-0.67716 0.10831,-1.35402 -0.0625,-2.03125 -0.17081,-0.67716 -0.45905,-1.13868 -0.875,-1.4375 -0.32477,-0.25887 -0.89299,-0.46424 -1.75,-0.59375 -0.85703,-0.12942 -1.56596,-0.21012 -2.09375,-0.25 l 0.375,-1.90625 10.9375,-0.6875 0.3125,0.4375 -3.90625,19.40625 0.1875,0.0625 c 1.49606,-1.31454 3.03347,-2.28018 4.625,-2.9375 1.59149,-0.65725 3.09087,-0.99997 4.5,-1 3.61202,3e-5 6.34567,1.44437 8.1875,4.3125 1.84177,2.86817 2.30454,6.58653 1.375,11.1875 -0.89339,4.42175 -3.05139,8.14869 -6.4375,11.15625 -3.38617,3.00758 -6.89093,4.5 -10.5625,4.5 -1.60759,0 -3.16767,-0.25205 -4.625,-0.75 -4.93204,-1.43838 -6.35006,-4.99227 -6.0625,-10.28125 l 0.34375,-1.78125 c -1.12252,3.19461 -2.96232,5.97526 -5.59375,8.3125 -3.38616,3.00758 -6.92217,4.5 -10.59375,4.5 -1.43441,0 -2.81023,-0.19731 -4.125,-0.59375 6.36924,5.49016 14.65014,8.8125 23.71875,8.8125 20.08411,0 36.375,-16.29089 36.375,-36.375 0,-20.08411 -16.29089,-36.34375 -36.375,-36.34375 z M 296.75,246.8125 c -1.38926,2e-5 -2.65991,0.29603 -3.8125,0.84375 -1.15261,0.54775 -2.25859,1.28264 -3.28125,2.21875 l -3.46875,17.15625 c 0.0225,0.47804 0.15645,1.01889 0.375,1.65625 0.21852,0.63738 0.55253,1.2349 1.03125,1.8125 0.4827,0.5577 1.06624,1.02644 1.75,1.375 0.68372,0.34856 1.56467,0.53125 2.65625,0.53125 2.42125,0 4.6304,-1.18095 6.59375,-3.53125 1.9633,-2.35028 3.36253,-5.57311 4.1875,-9.65625 0.29774,-1.4739 0.44516,-2.96631 0.4375,-4.5 -0.008,-1.53364 -0.24212,-2.86468 -0.6875,-4 -0.44141,-1.1552 -1.14709,-2.09543 -2.09375,-2.8125 -0.94671,-0.71701 -2.15933,-1.09373 -3.6875,-1.09375 z m 26.5,0 c -1.38927,2e-5 -2.65991,0.29603 -3.8125,0.84375 -1.15261,0.54775 -2.22733,1.28264 -3.25,2.21875 l -3.46875,17.15625 c 0.0225,0.47804 0.1252,1.01889 0.34375,1.65625 0.21853,0.63738 0.58378,1.2349 1.0625,1.8125 0.4827,0.5577 1.06624,1.02644 1.75,1.375 0.68373,0.34856 1.56467,0.53125 2.65625,0.53125 2.42126,0 4.59914,-1.18095 6.5625,-3.53125 1.9633,-2.35028 3.36253,-5.57311 4.1875,-9.65625 0.29775,-1.4739 0.44517,-2.96631 0.4375,-4.5 -0.008,-1.53364 -0.24211,-2.86468 -0.6875,-4 -0.44141,-1.1552 -1.11584,-2.09543 -2.0625,-2.8125 -0.94672,-0.71701 -2.19058,-1.09373 -3.71875,-1.09375 z"
         style="fill:#000000;fill-opacity:1;stroke:none" />
    </g>
    <text
       xml:space="preserve"
       style="font-size:48.78580093px;font-style:normal;font-variant:normal;font-weight:normal;font-stretch:normal;fill:#2e6e15;fill-opacity:1;stroke:none;font-family:Georgia;-inkscape-font-specification:Georgia"
       x="365.0997"
       y="245.70837"
       id="text2865"><tspan
         sodipodi:role="line"
         id="tspan2867"
         x="365.0997"
         y="245.70837">b</tspan></text>
    <text
       id="text2869"
       y="245.70837"
       x="388.31396"
       style="font-size:48.78580093px;font-style:normal;font-variant:normal;font-weight:normal;font-stretch:normal;fill:#2e6e15;fill-opacity:1;stroke:none;font-family:Georgia;-inkscape-font-specification:Georgia"
       xml:space="preserve"><tspan
         y="245.70837"
         x="388.31396"
         id="tspan2871"
         sodipodi:role="line">b</tspan></text>
    <text
       xml:space="preserve"
       style="font-size:48.98596191px;font-style:normal;font-variant:normal;font-weight:normal;font-stretch:normal;fill:#000000;fill-opacity:1;stroke:none;font-family:Georgia;-inkscape-font-specification:Georgia"
       x="432.17563"
       y="234.21056"
       id="text2873"
       transform="scale(0.95458139,1.0475796)"><tspan
         sodipodi:role="line"
         id="tspan2875"
         x="432.17563"
         y="234.21056">Press</tspan></text>
    <g
       style="font-size:48.78580093px;font-style:normal;font-variant:normal;font-weight:normal;font-stretch:normal;fill:#ff0000;fill-opacity:1;stroke:none;font-family:Georgia;-inkscape-font-specification:Georgia"
       id="g2895"
       transform="matrix(1.1093251,0,-0.22492721,1.1133073,79.257203,-136.59678)">
      <path
         style="fill:#ff0000"
         d="m 334.26406,259.84661 c -3e-5,3.97172 -1.25237,7.30831 -3.75703,10.00978 -2.5047,2.70148 -5.41191,4.05222 -8.72165,4.05222 -1.44916,0 -2.87593,-0.22363 -4.28032,-0.6709 -4.70795,-1.29199 -6.66247,-4.50768 -7.3665,-9.25837 l 0,-26.19182 c 0,-0.60824 -0.13866,-1.21653 -0.41596,-1.82484 -0.27731,-0.60824 -0.63064,-1.04656 -1.06002,-1.31496 -0.33991,-0.23253 -0.90794,-0.40697 -1.70407,-0.5233 -0.79614,-0.11625 -1.43573,-0.19228 -1.91877,-0.2281 l 0,-1.7175 9.71459,-0.61722 0.3757,0.40253 0,17.44332 0.18785,0.0536 c 1.10921,-1.18075 2.32129,-2.06634 3.63626,-2.65676 1.31495,-0.59036 2.60754,-0.88555 3.87779,-0.88558 3.25606,3e-5 5.97543,1.28815 8.15811,3.86438 2.18262,2.57626 3.27395,5.93073 3.27397,10.06344 l 5e-5,5e-5 z m -5.6087,0.18785 c -3e-5,-1.32389 -0.14315,-2.67462 -0.42938,-4.05222 -0.28627,-1.37755 -0.73353,-2.57623 -1.34179,-3.59601 -0.6083,-1.03763 -1.40443,-1.87848 -2.38839,-2.52257 -0.984,-0.64404 -2.16477,-0.96606 -3.54234,-0.96608 -1.25235,2e-5 -2.34815,0.24601 -3.2874,0.73798 -0.93926,0.49201 -1.78459,1.15844 -2.53598,1.99927 l 0,15.40379 c 0.10736,0.42939 0.31755,0.93032 0.63064,1.50281 0.31307,0.57251 0.73797,1.11817 1.27471,1.63699 0.5367,0.50094 1.14498,0.90795 1.82484,1.22104 0.67982,0.31308 1.51173,0.46962 2.49573,0.46962 2.18264,0 3.94485,-1.05554 5.28667,-3.16663 1.34177,-2.11108 2.01266,-5.00041 2.01269,-8.66799 z"
         id="path2897"
         sodipodi:nodetypes="csscccsssccccccssscccsssssccsssssc" />
    </g>
  </g>
</svg>
