<?xml version="1.0" encoding="UTF-8" standalone="no"?>
<!-- Created with Inkscape (http://www.inkscape.org/) -->

<svg
   xmlns:dc="http://purl.org/dc/elements/1.1/"
   xmlns:cc="http://creativecommons.org/ns#"
   xmlns:rdf="http://www.w3.org/1999/02/22-rdf-syntax-ns#"
   xmlns:svg="http://www.w3.org/2000/svg"
   xmlns="http://www.w3.org/2000/svg"
   xmlns:sodipodi="http://sodipodi.sourceforge.net/DTD/sodipodi-0.dtd"
   xmlns:inkscape="http://www.inkscape.org/namespaces/inkscape"
   width="600"
   height="200"
   id="svg2"
   version="1.1"
   inkscape:version="0.47 r22583"
   sodipodi:docname="buddypress.svg">
  <defs
     id="defs4">
    <inkscape:perspective
       sodipodi:type="inkscape:persp3d"
       inkscape:vp_x="0 : 526.18109 : 1"
       inkscape:vp_y="0 : 1000 : 0"
       inkscape:vp_z="744.09448 : 526.18109 : 1"
       inkscape:persp3d-origin="372.04724 : 350.78739 : 1"
       id="perspective10" />
    <inkscape:perspective
       id="perspective2859"
       inkscape:persp3d-origin="0.5 : 0.33333333 : 1"
       inkscape:vp_z="1 : 0.5 : 1"
       inkscape:vp_y="0 : 1000 : 0"
       inkscape:vp_x="0 : 0.5 : 1"
       sodipodi:type="inkscape:persp3d" />
    <inkscape:perspective
       id="perspective4696"
       inkscape:persp3d-origin="0.5 : 0.33333333 : 1"
       inkscape:vp_z="1 : 0.5 : 1"
       inkscape:vp_y="0 : 1000 : 0"
       inkscape:vp_x="0 : 0.5 : 1"
       sodipodi:type="inkscape:persp3d" />
    <inkscape:perspective
       id="perspective5268"
       inkscape:persp3d-origin="0.5 : 0.33333333 : 1"
       inkscape:vp_z="1 : 0.5 : 1"
       inkscape:vp_y="0 : 1000 : 0"
       inkscape:vp_x="0 : 0.5 : 1"
       sodipodi:type="inkscape:persp3d" />
    <inkscape:perspective
       id="perspective2841"
       inkscape:persp3d-origin="0.5 : 0.33333333 : 1"
       inkscape:vp_z="1 : 0.5 : 1"
       inkscape:vp_y="0 : 1000 : 0"
       inkscape:vp_x="0 : 0.5 : 1"
       sodipodi:type="inkscape:persp3d" />
  </defs>
  <sodipodi:namedview
     id="base"
     pagecolor="#ffffff"
     bordercolor="#666666"
     borderopacity="1.0"
     inkscape:pageopacity="0.0"
     inkscape:pageshadow="2"
     inkscape:zoom="0.35"
     inkscape:cx="453.32573"
     inkscape:cy="162.22899"
     inkscape:document-units="px"
     inkscape:current-layer="layer1"
     showgrid="false"
     inkscape:window-width="1366"
     inkscape:window-height="706"
     inkscape:window-x="-8"
     inkscape:window-y="-8"
     inkscape:window-maximized="1"
     showguides="true"
     inkscape:guide-bbox="true" />
  <metadata
     id="metadata7">
    <rdf:RDF>
      <cc:Work
         rdf:about="">
        <dc:format>image/svg+xml</dc:format>
        <dc:type
           rdf:resource="http://purl.org/dc/dcmitype/StillImage" />
        <dc:title />
      </cc:Work>
    </rdf:RDF>
  </metadata>
  <g
     inkscape:label="Layer 1"
     inkscape:groupmode="layer"
     id="layer1"
     transform="translate(0,-852.36218)">
    <g
       id="g5302"
       transform="matrix(0.19149384,0,0,0.19149384,90.795143,902.38552)">
      <path
         transform="matrix(1.4604811,0,0,1.4948454,-19.397706,-129.03606)"
         d="m 173.74623,275.0498 c 0,81.17326 -65.80393,146.97719 -146.977187,146.97719 -81.17326,0 -146.977193,-65.80393 -146.977193,-146.97719 0,-81.17325 65.803933,-146.97718 146.977193,-146.97718 81.173257,0 146.977187,65.80393 146.977187,146.97718 z"
         sodipodi:ry="146.97719"
         sodipodi:rx="146.97719"
         sodipodi:cy="275.0498"
         sodipodi:cx="26.769043"
         id="path5295"
         style="fill:#d94800;fill-opacity:1;stroke:none"
         sodipodi:type="arc" />
      <g
         id="g5289">
        <path
           style="fill:#ffffff;fill-opacity:1"
           d="m 18.210659,274.87976 c 19.16531,-6.07722 34.52389,-21.57895 40.70366,-41.08302 3.13884,-9.90653 3.14467,-27.05837 0.0126,-37 -5.94064,-18.85631 -21.01503,-34.15724 -40.2505,-40.8554 -7.51405,-2.61653 -9.8703698,-2.97105 -19.54416987,-2.94049 -9.08194993,0.0287 -12.40862013,0.49157 -19.07841013,2.65462 -20.4128,6.61998 -37.10031,24.45033 -41.8867,44.75531 -3.18815,13.52489 -1.38821,30.34462 4.53482,42.37599 13.79433,28.02027 45.6518,41.56045 75.5087,32.09299 z"
           id="path5274"
           sodipodi:nodetypes="csssssssc" />
        <path
           sodipodi:nodetypes="cscccssssscccc"
           id="path5283"
           d="m 183.01675,320.28715 c 0,-34.34819 -0.3108,-36.74104 -6.2218,-47.90723 -5.6614,-10.69462 -17.2533,-20.54496 -29.2782,-24.8795 -4.9172,-1.77246 -8.8876,-2.24322 -22,-2.60852 l -16,-0.44575 -11.500004,11.60386 c -10.559,10.65437 -11.3081,11.6544 -9.1541,12.22148 4.9342,1.299 17.906304,8.26395 23.654104,12.70027 8.6461,6.67335 15.9941,15.80747 21.0885,26.21453 5.4246,11.08168 7.3713,19.77065 7.3941,33.00269 0.01,5.54584 0.3174,10.38334 0.684,10.75 0.3667,0.36667 9.8167,0.66667 21,0.66667 l 20.3334,0 0,-31.3185 z"
           style="fill:#f0ccb9;fill-opacity:1" />
        <path
           style="fill:#ffffff;fill-opacity:1"
           d="m 84.085228,239.43787 c 9.9576,-2.92661 18.437202,-8.15105 25.785602,-15.88691 10.6882,-11.25196 16.1615,-24.47682 16.1311,-38.97684 -0.088,-42.1225 -44.286302,-70.1081 -81.485202,-51.59555 -8.67408,4.31676 -14.72421,8.86966 -12.84687,9.66761 3.31108,1.40736 14.17097,8.49766 18.21877,11.89478 12.365,10.37748 22.155,26.07247 26.138,41.90322 3.156,12.54415 2.4341,32.50184 -1.5496,42.84004 -0.8785,2.27977 2.2063,2.3291 9.6082,0.15365 z"
           id="path5285"
           sodipodi:nodetypes="csssssscc" />
        <path
           sodipodi:nodetypes="csscccccccsscccccc"
           id="path5287"
           d="m 124.42602,367.54674 c -0.0164,-36.22344 -0.51449,-40.39927 -6.22672,-52.19711 -4.34746,-8.97912 -16.83227,-21.46393 -25.811391,-25.81139 -10.09207,-4.88633 -17.4163,-6.20994 -34.45583,-6.22672 l -15.00872,-0.0148 -21.48275,21.50019 -21.48274987,21.5002 -21.61296013,-21.59622 -21.61296,-21.59621 -18.89557,0.43356 c -22.04653,0.50585 -26.62358,1.67885 -39.092329,10.01845 -8.63936,5.77836 -14.9256,13.17451 -19.75247,23.24003 -5.14922,10.7377 -5.55077,14.39451 -5.55077,50.54922 l 0,32.95078 125.4999991,0 125.5000009,0 -0.0148,-32.75 2e-5,2e-5 z"
           style="fill:#f0ccb9;fill-opacity:1" />
      </g>
      <path
         id="path5299"
         d="m 19.6875,27.6875 c -137.28798,0 -248.5625,113.91922 -248.5625,254.4375 0,140.51828 111.27452,254.4375 248.5625,254.4375 137.28798,0 248.59375,-113.91922 248.59375,-254.4375 0,-140.51828 -111.30577,-254.4375 -248.59375,-254.4375 z m 0,19 c 127.03126,0 230.03125,105.41727 230.03125,235.4375 0,130.02023 -102.99999,235.40625 -230.03125,235.40625 -127.03126,0 -230,-105.38602 -230,-235.40625 0,-130.02023 102.96874,-235.4375 230,-235.4375 z"
         style="fill:#d94800;fill-opacity:1;stroke:none" />
    </g>
    <g
       id="g2841"
       transform="matrix(0.34764605,0,0,0.34764605,-18.561906,848.59726)">
      <text
         transform="scale(0.96547928,1.035755)"
         id="text2847"
         y="355.9621"
         x="496.6803"
         style="font-size:232.29945374px;font-style:normal;font-variant:normal;font-weight:normal;font-stretch:normal;fill:#d94800;fill-opacity:1;stroke:none;font-family:Fontin;-inkscape-font-specification:Fontin"
         xml:space="preserve"><tspan
           y="355.9621"
           x="496.6803"
           id="tspan2849"
           sodipodi:role="line">Buddy</tspan></text>
      <text
         xml:space="preserve"
         style="font-size:232.29945374px;font-style:normal;font-variant:normal;font-weight:normal;font-stretch:normal;fill:#363835;fill-opacity:1;stroke:none;font-family:Fontin;-inkscape-font-specification:Fontin"
         x="1138.8484"
         y="355.9621"
         id="text2837"
         transform="scale(0.96547928,1.035755)"><tspan
           sodipodi:role="line"
           id="tspan2839"
           x="1138.8484"
           y="355.9621">Press</tspan></text>
    </g>
  </g>
</svg>
