<?xml version="1.0" encoding="UTF-8" standalone="no"?>
<!-- Created with Inkscape (http://www.inkscape.org/) -->

<svg
   xmlns:dc="http://purl.org/dc/elements/1.1/"
   xmlns:cc="http://creativecommons.org/ns#"
   xmlns:rdf="http://www.w3.org/1999/02/22-rdf-syntax-ns#"
   xmlns:svg="http://www.w3.org/2000/svg"
   xmlns="http://www.w3.org/2000/svg"
   xmlns:xlink="http://www.w3.org/1999/xlink"
   xmlns:sodipodi="http://sodipodi.sourceforge.net/DTD/sodipodi-0.dtd"
   xmlns:inkscape="http://www.inkscape.org/namespaces/inkscape"
   width="744.09448819"
   height="1052.3622047"
   id="svg2"
   version="1.1"
   inkscape:version="0.47 r22583"
   sodipodi:docname="FacebookApps.svg">
  <defs
     id="defs4">
    <inkscape:perspective
       sodipodi:type="inkscape:persp3d"
       inkscape:vp_x="0 : 526.18109 : 1"
       inkscape:vp_y="0 : 1000 : 0"
       inkscape:vp_z="744.09448 : 526.18109 : 1"
       inkscape:persp3d-origin="372.04724 : 350.78739 : 1"
       id="perspective10" />
    <inkscape:perspective
       id="perspective2824"
       inkscape:persp3d-origin="0.5 : 0.33333333 : 1"
       inkscape:vp_z="1 : 0.5 : 1"
       inkscape:vp_y="0 : 1000 : 0"
       inkscape:vp_x="0 : 0.5 : 1"
       sodipodi:type="inkscape:persp3d" />
    <inkscape:perspective
       id="perspective2882"
       inkscape:persp3d-origin="0.5 : 0.33333333 : 1"
       inkscape:vp_z="1 : 0.5 : 1"
       inkscape:vp_y="0 : 1000 : 0"
       inkscape:vp_x="0 : 0.5 : 1"
       sodipodi:type="inkscape:persp3d" />
    <inkscape:perspective
       id="perspective2911"
       inkscape:persp3d-origin="0.5 : 0.33333333 : 1"
       inkscape:vp_z="1 : 0.5 : 1"
       inkscape:vp_y="0 : 1000 : 0"
       inkscape:vp_x="0 : 0.5 : 1"
       sodipodi:type="inkscape:persp3d" />
    <inkscape:perspective
       id="perspective3750"
       inkscape:persp3d-origin="0.5 : 0.33333333 : 1"
       inkscape:vp_z="1 : 0.5 : 1"
       inkscape:vp_y="0 : 1000 : 0"
       inkscape:vp_x="0 : 0.5 : 1"
       sodipodi:type="inkscape:persp3d" />
  </defs>
  <sodipodi:namedview
     id="base"
     pagecolor="#ffffff"
     bordercolor="#666666"
     borderopacity="1.0"
     inkscape:pageopacity="0.0"
     inkscape:pageshadow="2"
     inkscape:zoom="0.25"
     inkscape:cx="870.37646"
     inkscape:cy="634.93319"
     inkscape:document-units="px"
     inkscape:current-layer="layer2"
     showgrid="false"
     showguides="false"
     inkscape:guide-bbox="true"
     inkscape:window-width="1366"
     inkscape:window-height="706"
     inkscape:window-x="-8"
     inkscape:window-y="-8"
     inkscape:window-maximized="1">
    <sodipodi:guide
       orientation="1,0"
       position="346.60714,532.60636"
       id="guide3715" />
    <sodipodi:guide
       orientation="1,0"
       position="374.26152,641.95194"
       id="guide3717" />
    <sodipodi:guide
       orientation="1,0"
       position="509.62196,673.26667"
       id="guide3719" />
    <sodipodi:guide
       orientation="-0.49741379,0.86751341"
       position="374.26152,516.49824"
       id="guide3721" />
    <sodipodi:guide
       orientation="-0.50332063,-0.86409973"
       position="354.56354,685.26223"
       id="guide3723" />
  </sodipodi:namedview>
  <metadata
     id="metadata7">
    <rdf:RDF>
      <cc:Work
         rdf:about="">
        <dc:format>image/svg+xml</dc:format>
        <dc:type
           rdf:resource="http://purl.org/dc/dcmitype/StillImage" />
        <dc:title />
      </cc:Work>
    </rdf:RDF>
  </metadata>
  <g
     inkscape:label="Layer 1"
     inkscape:groupmode="layer"
     id="layer1"
     style="display:none"
     sodipodi:insensitive="true">
    <image
       y="212.36218"
       x="194.28572"
       id="image2826"
       height="360"
       width="360"
       xlink:href="file:///C:/Users/alejandro/Documents/wwwroot/sites/jquery_lab/plugins/jquery.a3gthumbsandcomments/inkscape_pasted_image_20111206_072046.png" />
  </g>
  <g
     inkscape:groupmode="layer"
     id="layer3"
     inkscape:label="Block"
     style="display:inline">
    <g
       id="g5251"
       transform="translate(-157.10867,-91.512634)">
      <path
         style="fill:#81a2d5;fill-opacity:1;stroke:none"
         d="m 267.95592,473.94308 -27.65438,-16.10811 0,-157.38956 136.09254,-79.37321 26.92227,15.68168 0,159.5764 -135.36043,77.6128 z"
         id="path3740"
         sodipodi:nodetypes="ccccccc" />
      <path
         id="path3781"
         d="m 403.26217,236.73706 -136.09375,79.375 0,157.375 0.78125,0.46875 135.375,-77.625 0,-159.5625 -0.0625,-0.0312 z"
         style="fill:#3b5a9a;fill-opacity:1;stroke:none" />
      <path
         style="fill:#2b3f7c;fill-opacity:1;stroke:none"
         d="m 240.30154,300.54465 27.65438,16.10812 0,157.29031 -27.65438,-16.10812 0,-157.29031 z"
         id="path3786" />
      <path
         sodipodi:nodetypes="ccccccc"
         id="path3815"
         d="m 267.95592,473.94308 -27.65438,-16.10811 0,-157.38956 136.09254,-79.37321 26.92227,15.68168 0,159.5764 -135.36043,77.6128 z"
         style="opacity:0.3;fill:#000000;fill-opacity:1;stroke:none" />
    </g>
    <g
       id="g5257"
       transform="translate(-189.26963,-99.103514)">
      <g
         transform="translate(484.95273,112.58934)"
         id="g3793">
        <path
           style="fill:#81a2d5;fill-opacity:1;stroke:none"
           d="m -135.24375,397.83102 -27.65438,-16.10811 0,-157.38956 136.092543,-79.37321 26.92226959,15.68168 0,159.5764 -135.36043259,77.6128 z"
           id="path3795"
           sodipodi:nodetypes="ccccccc" />
        <path
           id="path3797"
           d="M 0.0625,160.625 -136.03125,240 l 0,157.375 0.78125,0.46875 135.375,-77.625 0,-159.5625 -0.0625,-0.0312 z"
           style="fill:#3b5a9a;fill-opacity:1;stroke:none" />
        <path
           style="fill:#2b3f7c;fill-opacity:1;stroke:none"
           d="m -162.89813,224.43259 27.65438,16.10812 0,157.29031 -27.65438,-16.10812 0,-157.29031 z"
           id="path3799" />
      </g>
      <path
         style="opacity:0.2;fill:#000000;fill-opacity:1;stroke:none"
         d="m 349.70898,510.42036 -27.65438,-16.10811 0,-157.38956 136.09254,-79.37321 26.92227,15.68168 0,159.5764 -135.36043,77.6128 z"
         id="path3803"
         sodipodi:nodetypes="ccccccc" />
    </g>
    <g
       transform="matrix(-1,0,0,1,877.97404,236.76582)"
       id="g5264">
      <path
         sodipodi:nodetypes="ccccccc"
         id="path5266"
         d="m 267.95592,473.94308 -27.65438,-16.10811 0,-157.38956 136.09254,-79.37321 26.92227,15.68168 0,159.5764 -135.36043,77.6128 z"
         style="fill:#81a2d5;fill-opacity:1;stroke:none" />
      <path
         style="fill:#3b5a9a;fill-opacity:1;stroke:none"
         d="m 403.26217,236.73706 -136.09375,79.375 0,157.375 0.78125,0.46875 135.375,-77.625 0,-159.5625 -0.0625,-0.0312 z"
         id="path5268" />
      <path
         id="path5270"
         d="m 240.30154,300.54465 27.65438,16.10812 0,157.29031 -27.65438,-16.10812 0,-157.29031 z"
         style="fill:#2b3f7c;fill-opacity:1;stroke:none" />
      <path
         style="opacity:0.3;fill:#000000;fill-opacity:1;stroke:none"
         d="m 267.95592,473.94308 -27.65438,-16.10811 0,-157.38956 136.09254,-79.37321 26.92227,15.68168 0,159.5764 -135.36043,77.6128 z"
         id="path5272"
         sodipodi:nodetypes="ccccccc" />
    </g>
    <g
       transform="matrix(-1,0,0,1,910.135,229.17494)"
       id="g5274">
      <g
         id="g5276"
         transform="translate(484.95273,112.58934)">
        <path
           sodipodi:nodetypes="ccccccc"
           id="path5278"
           d="m -135.24375,397.83102 -27.65438,-16.10811 0,-157.38956 136.092543,-79.37321 26.92226959,15.68168 0,159.5764 -135.36043259,77.6128 z"
           style="fill:#81a2d5;fill-opacity:1;stroke:none" />
        <path
           style="fill:#3b5a9a;fill-opacity:1;stroke:none"
           d="M 0.0625,160.625 -136.03125,240 l 0,157.375 0.78125,0.46875 135.375,-77.625 0,-159.5625 -0.0625,-0.0312 z"
           id="path5280" />
        <path
           id="path5282"
           d="m -162.89813,224.43259 27.65438,16.10812 0,157.29031 -27.65438,-16.10812 0,-157.29031 z"
           style="fill:#2b3f7c;fill-opacity:1;stroke:none" />
      </g>
      <path
         sodipodi:nodetypes="ccccccc"
         id="path5284"
         d="m 349.70898,510.42036 -27.65438,-16.10811 0,-157.38956 136.09254,-79.37321 26.92227,15.68168 0,159.5764 -135.36043,77.6128 z"
         style="opacity:0.2;fill:#000000;fill-opacity:1;stroke:none" />
    </g>
  </g>
  <g
     inkscape:groupmode="layer"
     id="layer4"
     inkscape:label="Front face"
     style="display:inline" />
  <g
     inkscape:groupmode="layer"
     id="layer2"
     inkscape:label="f"
     style="display:inline">
    <g
       id="g5243"
       transform="translate(-163.46227,-103.34205)">
      <g
         id="g5225"
         transform="translate(509.95273,145.58934)"
         style="display:inline">
        <path
           sodipodi:nodetypes="ccccccc"
           id="path5227"
           d="m -135.24375,397.83102 -27.65438,-16.10811 0,-157.38956 136.092543,-79.37321 26.92226959,15.68168 0,159.5764 -135.36043259,77.6128 z"
           style="fill:#81a2d5;fill-opacity:1;stroke:none" />
        <path
           style="fill:#3b5a9a;fill-opacity:1;stroke:none"
           d="M 0.0625,160.625 -136.03125,240 l 0,157.375 0.78125,0.46875 135.375,-77.625 0,-159.5625 -0.0625,-0.0312 z"
           id="path5229" />
        <path
           id="path5231"
           d="m -162.89813,224.43259 27.65438,16.10812 0,157.29031 -27.65438,-16.10812 0,-157.29031 z"
           style="fill:#2b3f7c;fill-opacity:1;stroke:none" />
      </g>
      <g
         inkscape:transform-center-y="9.5719941"
         inkscape:transform-center-x="-17.67767"
         style="fill:#ffffff;fill-opacity:1"
         id="g2860"
         transform="matrix(1,-0.55098071,0,1,323.24373,455.60491)">
        <path
           sodipodi:nodetypes="ccccccccccccccccc"
           id="path2862"
           d="m 115.07499,114.54081 -26.886515,0.61222 0,-64.615858 -13.436494,0 0,-22.426184 13.436494,0 0,-13.465017 c 0,-18.2960295 7.583435,-29.175197 29.134665,-29.175197 l 17.94335,0 0,22.4306862 -11.21533,0 c -8.3909,0 -8.94316,3.1336318 -8.94316,8.9836788 l -0.0329,11.225849 20.31758,0 -2.37725,22.426184 -17.94033,0 -1.1e-4,64.003638 z"
           style="fill:#ffffff;fill-opacity:1" />
      </g>
    </g>
    <g
       id="g5288"
       transform="matrix(-1,0,0,1,374.37491,370.52575)"
       style="display:inline">
      <path
         sodipodi:nodetypes="ccccccc"
         id="path5290"
         d="m -135.24375,397.83102 -27.65438,-16.10811 0,-157.38956 136.092543,-79.37321 26.92226959,15.68168 0,159.5764 -135.36043259,77.6128 z"
         style="fill:#81a2d5;fill-opacity:1;stroke:none" />
      <path
         style="fill:#3b5a9a;fill-opacity:1;stroke:none"
         d="M 0.0625,160.625 -136.03125,240 l 0,157.375 0.78125,0.46875 135.375,-77.625 0,-159.5625 -0.0625,-0.0312 z"
         id="path5292" />
      <path
         id="path5294"
         d="m -162.89813,224.43259 27.65438,16.10812 0,157.29031 -27.65438,-16.10812 0,-157.29031 z"
         style="fill:#2b3f7c;fill-opacity:1;stroke:none" />
    </g>
    <g
       inkscape:transform-center-y="-4.0829086"
       inkscape:transform-center-x="17.677669"
       style="fill:#ffffff;fill-opacity:1"
       id="g5296"
       transform="matrix(1,0.59592798,0,1,307.43925,535.25828)">
      <path
         sodipodi:nodetypes="ccccccccccccccccc"
         id="path5298"
         d="m 115.07499,114.54081 -26.886515,0.61222 0,-64.615858 -13.436494,0 0,-22.426184 13.436494,0 0,-13.465017 c 0,-18.2960295 7.583435,-29.175197 29.134665,-29.175197 l 17.94335,0 0,22.4306862 -11.21533,0 c -8.3909,0 -8.94316,3.1336318 -8.94316,8.9836788 l -0.0329,11.225849 20.31758,0 -2.37725,22.426184 -17.94033,0 -1.1e-4,64.003638 z"
         style="fill:#ffffff;fill-opacity:1" />
    </g>
  </g>
</svg>
