<?xml version="1.0" encoding="UTF-8" standalone="no"?>
<!-- Created with Inkscape (http://www.inkscape.org/) -->

<svg
   xmlns:dc="http://purl.org/dc/elements/1.1/"
   xmlns:cc="http://creativecommons.org/ns#"
   xmlns:rdf="http://www.w3.org/1999/02/22-rdf-syntax-ns#"
   xmlns:svg="http://www.w3.org/2000/svg"
   xmlns="http://www.w3.org/2000/svg"
   xmlns:sodipodi="http://sodipodi.sourceforge.net/DTD/sodipodi-0.dtd"
   xmlns:inkscape="http://www.inkscape.org/namespaces/inkscape"
   width="744.09448819"
   height="1052.3622047"
   id="svg2"
   version="1.1"
   inkscape:version="0.48.2 r9819"
   sodipodi:docname="OpenID.svg">
  <defs
     id="defs4" />
  <sodipodi:namedview
     id="base"
     pagecolor="#ffffff"
     bordercolor="#666666"
     borderopacity="1.0"
     inkscape:pageopacity="0.0"
     inkscape:pageshadow="2"
     inkscape:zoom="1.4142136"
     inkscape:cx="146.20432"
     inkscape:cy="605.38767"
     inkscape:document-units="px"
     inkscape:current-layer="layer2"
     showgrid="false"
     inkscape:window-width="1600"
     inkscape:window-height="838"
     inkscape:window-x="-8"
     inkscape:window-y="-8"
     inkscape:window-maximized="1" />
  <metadata
     id="metadata7">
    <rdf:RDF>
      <cc:Work
         rdf:about="">
        <dc:format>image/svg+xml</dc:format>
        <dc:type
           rdf:resource="http://purl.org/dc/dcmitype/StillImage" />
        <dc:title></dc:title>
      </cc:Work>
    </rdf:RDF>
  </metadata>
  <g
     inkscape:groupmode="layer"
     id="layer2"
     inkscape:label="Layer">
    <path
       style="fill:#bcbdc0;fill-opacity:1;stroke:none"
       d="M 179.78125 354.96875 L 179.78125 376.3125 C 192.00908 378.41925 203.06358 382.27578 212.1875 387.4375 L 194.875 397.28125 L 258.4375 411.65625 L 253 364.25 L 237 373.34375 C 221.48545 364.04477 201.7406 357.50757 179.78125 354.96875 z M 136.1875 355.28125 C 85.18969 362.00471 46.90625 390.44618 46.90625 424.5 C 46.90625 459.65116 87.728577 488.80272 141.1875 494.28125 L 141.1875 472.625 C 105.25361 467.75396 78.34375 447.91695 78.34375 424.15625 C 78.34375 401.51177 102.78813 382.40521 136.1875 376.4375 L 136.1875 355.28125 z "
       id="path3769" />
    <rect
       style="fill:#f7931e;fill-opacity:1;stroke:none"
       id="rect2997"
       width="37.406956"
       height="180.90761"
       x="155.89014"
       y="379.47745"
       transform="matrix(0.90571356,-0.42389024,0,1,0,0)" />
    <path
       style="font-size:124.36299133px;font-style:normal;font-variant:normal;font-weight:normal;font-stretch:normal;text-align:start;line-height:125%;letter-spacing:0px;word-spacing:0px;text-anchor:start;fill:#000000;fill-opacity:1;stroke:none;font-family:Arial;-inkscape-font-specification:Arial"
       d="m 331.85628,367.6875 c -12.42453,9e-5 -22.55079,4.21244 -30.40625,12.65625 -7.8555,8.44397 -11.78126,20.13751 -11.78125,35.0625 -1e-5,7.89191 1.69586,15.36346 5.0625,22.4375 3.36662,7.07408 8.31085,12.66095 14.84375,16.75 6.53285,4.08906 13.95361,6.125 22.25,6.125 7.65504,0 14.7619,-1.83066 21.375,-5.53125 6.61296,-3.70059 11.73656,-9.147 15.34375,-16.34375 3.60702,-7.19671 5.40616,-15.38137 5.40625,-24.5 -9e-5,-8.99587 -1.69833,-17.03043 -5.125,-24.125 -3.42684,-7.09443 -8.4047,-12.62729 -14.9375,-16.59375 -6.53294,-3.96629 -13.89527,-5.93741 -22.03125,-5.9375 z m 253.375,2.28125 0,89.1875 12.0625,0 0,-89.1875 -12.0625,0 z m 26,0 0,89.1875 31.59375,0 c 5.29847,0 10.01026,-0.51744 14.09375,-1.53125 4.08338,-1.0138 7.54915,-2.50196 10.4375,-4.46875 2.88822,-1.96678 5.53853,-4.66707 7.96875,-8.09375 2.43007,-3.42665 4.44622,-7.73749 6,-12.96875 1.55362,-5.23121 2.31242,-11.25899 2.3125,-18.03125 -8e-5,-7.94819 -1.14687,-15.00322 -3.4375,-21.1875 -2.29079,-6.18415 -5.72256,-11.2758 -10.34375,-15.25 -3.54569,-3.08189 -7.85542,-5.1989 -12.875,-6.375 -3.58551,-0.85151 -8.78142,-1.28116 -15.59375,-1.28125 l -30.15625,0 z m -279.3125,7.96875 c 5.8114,8e-5 11.04949,1.49462 15.71875,4.5 4.66914,3.00553 8.2314,7.22868 10.65625,12.6875 2.4247,5.45895 3.62492,11.86814 3.625,19.1875 -8e-5,11.57206 -2.8289,20.48413 -8.5,26.78125 -5.67124,6.29716 -12.879,9.46876 -21.65625,9.46875 -8.61703,10e-6 -15.78877,-3.13918 -21.5,-9.375 -5.71128,-6.23578 -8.56252,-14.75772 -8.5625,-25.59375 -2e-5,-13.53471 2.9545,-23.21392 8.90625,-29 5.9517,-5.78593 13.05618,-8.65617 21.3125,-8.65625 z m 290.90625,2.5625 18.40625,0 c 6.892,8e-5 11.89255,0.59601 15,1.8125 4.30249,1.70327 7.92964,5.05437 10.9375,10.0625 3.00773,5.00826 4.53118,12.20429 4.53125,21.53125 -7e-5,6.73171 -0.77879,12.43195 -2.3125,17.15625 -1.53385,4.72436 -3.65746,8.51441 -6.40625,11.3125 -1.95214,1.98708 -4.58839,3.49885 -7.875,4.59375 -3.28672,1.09492 -7.81722,1.65626 -13.59375,1.65625 l -18.6875,0 0,-68.125 z m -207.96875,12.59375 c -4.64302,7e-5 -8.58477,0.82645 -11.84375,2.46875 -3.25904,1.64243 -6.19192,4.09033 -8.78125,7.375 l 0,-8.375 -10.96875,0 0,89.34375 12.03125,0 0,-31.4375 c 2.0536,2.35204 4.68292,4.30277 7.875,5.84375 3.19202,1.54098 6.7945,2.28125 10.8125,2.28125 5.49117,0 10.74089,-1.40037 15.71875,-4.21875 4.97775,-2.81838 8.76326,-6.86417 11.375,-12.15625 2.61161,-5.29205 3.90618,-11.23371 3.90625,-17.84375 -7e-5,-6.1639 -1.16518,-11.82954 -3.53125,-17 -2.3662,-5.17036 -5.88833,-9.19253 -10.53125,-12.03125 -4.64303,-2.83859 -9.99096,-4.24993 -16.0625,-4.25 z m 65.5,0 c -8.80021,7e-5 -15.94865,2.99833 -21.46875,9 -5.52013,6.00178 -8.28125,14.44454 -8.28125,25.3125 0,10.50305 2.72738,18.64951 8.1875,24.46875 5.4601,5.81925 12.83602,8.71875 22.15625,8.71875 7.40012,0 13.48985,-1.81905 18.25,-5.46875 4.76004,-3.6497 8.02115,-8.76497 9.78125,-15.375 l -11.15625,-1.40625 c -1.64009,4.62297 -3.85624,7.98505 -6.65625,10.09375 -2.8001,2.10873 -6.1962,3.15626 -10.15625,3.15625 -5.32014,10e-6 -9.75245,-1.88488 -13.3125,-5.65625 -3.56009,-3.77134 -5.53751,-9.18458 -5.9375,-16.28125 l 47.5,0 c 0.0399,-1.29764 0.0624,-2.28863 0.0625,-2.9375 -6e-5,-10.6652 -2.69369,-18.93237 -8.09375,-24.8125 -5.40017,-5.88001 -12.35486,-8.81243 -20.875,-8.8125 z m 67.90625,0 c -9.14202,7e-5 -16.1289,3.55967 -20.96875,10.65625 l 0,-9.1875 -10.0625,0 0,64.59375 11.15625,0 0,-35.28125 c -2e-5,-8.27262 1.73338,-13.88339 5.1875,-16.84375 3.45407,-2.96026 7.55533,-4.43744 12.3125,-4.4375 2.97834,6e-5 5.5681,0.65086 7.78125,1.96875 2.21306,1.318 3.75626,3.0712 4.625,5.28125 0.86865,2.21014 1.31245,5.5393 1.3125,10 l 0,39.3125 11.15625,0 0,-39.71875 c -6e-5,-5.06899 -0.18015,-8.62859 -0.59375,-10.65625 -0.66192,-3.12247 -1.8454,-5.82277 -3.5,-8.09375 -1.65471,-2.27087 -4.1388,-4.10088 -7.46875,-5.5 -3.33005,-1.39899 -6.96636,-2.09368 -10.9375,-2.09375 z m -134.53125,8.5625 c 5.17867,6e-5 9.61592,2.06053 13.34375,6.15625 3.72772,4.09582 5.59369,10.26793 5.59375,18.5 -6e-5,8.63765 -1.90174,15.00896 -5.71875,19.125 -3.81712,4.11606 -8.42401,6.15626 -13.78125,6.15625 -5.26803,10e-6 -9.73207,-1.96337 -13.4375,-5.9375 -3.70548,-3.9741 -5.56252,-10.12426 -5.5625,-18.4375 -2e-5,-8.31317 1.98648,-14.64059 5.9375,-19 3.95097,-4.35931 8.4909,-6.56244 13.625,-6.5625 z m 66.75,0.4375 c 5.48008,6e-5 9.93488,2.09512 13.375,6.3125 2.24,2.71705 3.61369,6.81604 4.09375,12.25 l -35.59375,0 c 0.35999,-5.63672 2.24491,-10.13411 5.625,-13.5 3.38005,-3.36578 7.53986,-5.06244 12.5,-5.0625 z"
       id="text3786"
       inkscape:connector-curvature="0" />
  </g>
</svg>
