<?xml version="1.0" encoding="UTF-8" standalone="no"?>
<!-- Created with Inkscape (http://www.inkscape.org/) -->

<svg
   xmlns:dc="http://purl.org/dc/elements/1.1/"
   xmlns:cc="http://creativecommons.org/ns#"
   xmlns:rdf="http://www.w3.org/1999/02/22-rdf-syntax-ns#"
   xmlns:svg="http://www.w3.org/2000/svg"
   xmlns="http://www.w3.org/2000/svg"
   xmlns:sodipodi="http://sodipodi.sourceforge.net/DTD/sodipodi-0.dtd"
   xmlns:inkscape="http://www.inkscape.org/namespaces/inkscape"
   width="744.09448819"
   height="1052.3622047"
   id="svg16285"
   version="1.1"
   inkscape:version="0.48.2 r9819"
   sodipodi:docname="New document 41">
  <defs
     id="defs16287" />
  <sodipodi:namedview
     id="base"
     pagecolor="#ffffff"
     bordercolor="#666666"
     borderopacity="1.0"
     inkscape:pageopacity="0.0"
     inkscape:pageshadow="2"
     inkscape:zoom="0.35"
     inkscape:cx="375"
     inkscape:cy="520"
     inkscape:document-units="px"
     inkscape:current-layer="layer1"
     showgrid="false"
     inkscape:window-width="469"
     inkscape:window-height="403"
     inkscape:window-x="150"
     inkscape:window-y="150"
     inkscape:window-maximized="0" />
  <metadata
     id="metadata16290">
    <rdf:RDF>
      <cc:Work
         rdf:about="">
        <dc:format>image/svg+xml</dc:format>
        <dc:type
           rdf:resource="http://purl.org/dc/dcmitype/StillImage" />
        <dc:title></dc:title>
      </cc:Work>
    </rdf:RDF>
  </metadata>
  <g
     inkscape:label="Layer 1"
     inkscape:groupmode="layer"
     id="layer1">
    <g
       style="display:inline"
       id="g23704"
       transform="matrix(4.6461188,0,0,4.5649579,-4003.5335,-3685.1665)">
      <path
         sodipodi:nodetypes="ssssccsscccs"
         id="path23136"
         d="m 949.25,924.25 c -11.0457,0 -20,8.9543 -20,20 0,11.0457 8.9543,20 20,20 11.0457,0 20,-8.9543 20,-20 0,-1.69664 -0.22734,-3.33317 -0.625,-4.90625 -3.48254,-3.42279 -5.68982,-3.40388 -7.28125,-2.15625 0.40474,0.67529 0.65625,1.46793 0.65625,2.3125 0,2.48528 -2.01472,4.5 -4.5,4.5 -2.48528,0 -4.5,-2.01472 -4.5,-4.5 0.64276,-4.80748 6.04903,-6.93329 9.03125,-6.9375 1.10096,0.0153 2.32666,0.12502 3.71875,0.375 -3.60503,-5.24717 -9.65266,-8.6875 -16.5,-8.6875 z"
         style="fill:#7da49f;fill-opacity:1;stroke:none;display:inline"
         inkscape:connector-curvature="0" />
      <path
         sodipodi:nodetypes="ccccc"
         inkscape:connector-curvature="0"
         id="path23128"
         d="m 917.47696,857.06735 c -2.32724,-8.03814 -16.14352,-5.60706 -14.51714,4.03553 0.2205,1.76201 8.51964,39.05051 15.38846,55.48276 2.21144,4.29724 9.28738,2.95644 9.19239,-2.12132 -1.2786,-14.72119 -9.06024,-55.40801 -10.06371,-57.39697 z"
         style="fill:#7da49f;fill-opacity:1;stroke:none;display:inline" />
      <path
         style="fill:#7da49f;fill-opacity:1;stroke:none;display:inline"
         d="m 946.15456,849.17078 c -1.15849,-8.8924 -16.18807,-8.56314 -16.03274,1.9148 -0.0528,1.9022 2.67666,42.74776 7.28125,61.26956 1.64389,4.91116 9.35679,4.64113 10.08154,-0.75276 1.03854,-15.80075 -0.59045,-60.16176 -1.33005,-62.4316 z"
         id="path23130"
         inkscape:connector-curvature="0"
         sodipodi:nodetypes="ccccc" />
      <path
         sodipodi:nodetypes="ccccc"
         inkscape:connector-curvature="0"
         id="path23132"
         d="m 975.10259,858.7475 c 0.50595,-8.1276 -13.34983,-10.41051 -15.05658,-1.04112 -0.38422,1.68708 -5.08767,38.57533 -4.12958,55.87983 0.64234,4.6609 7.77072,5.74233 9.38807,1.05706 3.74223,-13.91086 10.07644,-53.74505 9.79809,-55.89577 z"
         style="fill:#7da49f;fill-opacity:1;stroke:none;display:inline" />
      <path
         style="fill:#7da49f;fill-opacity:1;stroke:none;display:inline"
         d="m 996.32956,877.49727 c 1.34486,-6.39125 -9.38598,-9.81113 -11.8279,-2.57378 -0.50072,1.29425 -8.5148,30.02247 -9.76293,43.86633 -0.0312,3.7734 5.50029,5.45897 7.32759,1.92851 4.58437,-10.60516 14.23451,-41.48196 14.26324,-43.22106 z"
         id="path23134"
         inkscape:connector-curvature="0"
         sodipodi:nodetypes="ccccc" />
      <path
         sodipodi:nodetypes="ccscccczcc"
         inkscape:connector-curvature="0"
         id="path23180"
         d="m 913,932.5 c -4.63339,5.76186 -0.97845,12.33142 7.5,7.75 32.1633,-22.18758 66.03998,-4.47503 57.48078,19.00857 C 972.27037,974.92603 915.18204,985.08276 907.5,948.5 l -1.25,-32.75 c -1.64357,-12.24937 -11.60777,-13.36828 -14.5,-12.25 3.02007,26.6837 0.8717,42.27514 4.5,52 11.71087,45.1096 94.60425,33.42502 95,-2 0.39575,-35.42502 -38.41466,-32.8782 -46.25,-33 -25.1667,3.20838 -32,12 -32,12 z"
         style="fill:#7da49f;fill-opacity:1;stroke:none" />
    </g>
  </g>
</svg>
