<?xml version="1.0" encoding="UTF-8" standalone="no"?>
<!-- Created with Inkscape (http://www.inkscape.org/) -->

<svg
   xmlns:dc="http://purl.org/dc/elements/1.1/"
   xmlns:cc="http://creativecommons.org/ns#"
   xmlns:rdf="http://www.w3.org/1999/02/22-rdf-syntax-ns#"
   xmlns:svg="http://www.w3.org/2000/svg"
   xmlns="http://www.w3.org/2000/svg"
   xmlns:sodipodi="http://sodipodi.sourceforge.net/DTD/sodipodi-0.dtd"
   xmlns:inkscape="http://www.inkscape.org/namespaces/inkscape"
   width="600"
   height="200"
   id="svg2"
   version="1.1"
   inkscape:version="0.47 r22583"
   sodipodi:docname="zen_cart_logo.svg"
   style="enable-background:new">
  <defs
     id="defs4">
    <linearGradient
       id="linearGradient4848">
      <stop
         style="stop-color:#800000;stop-opacity:1"
         offset="0"
         id="stop4850" />
      <stop
         id="stop4856"
         offset="0.46833888"
         style="stop-color:#ff0000;stop-opacity:1" />
      <stop
         style="stop-color:#800000;stop-opacity:1"
         offset="1"
         id="stop4852" />
    </linearGradient>
    <inkscape:perspective
       sodipodi:type="inkscape:persp3d"
       inkscape:vp_x="0 : 526.18109 : 1"
       inkscape:vp_y="0 : 1000 : 0"
       inkscape:vp_z="744.09448 : 526.18109 : 1"
       inkscape:persp3d-origin="372.04724 : 350.78739 : 1"
       id="perspective10" />
    <inkscape:perspective
       id="perspective2859"
       inkscape:persp3d-origin="0.5 : 0.33333333 : 1"
       inkscape:vp_z="1 : 0.5 : 1"
       inkscape:vp_y="0 : 1000 : 0"
       inkscape:vp_x="0 : 0.5 : 1"
       sodipodi:type="inkscape:persp3d" />
    <inkscape:perspective
       id="perspective4696"
       inkscape:persp3d-origin="0.5 : 0.33333333 : 1"
       inkscape:vp_z="1 : 0.5 : 1"
       inkscape:vp_y="0 : 1000 : 0"
       inkscape:vp_x="0 : 0.5 : 1"
       sodipodi:type="inkscape:persp3d" />
    <inkscape:perspective
       id="perspective5268"
       inkscape:persp3d-origin="0.5 : 0.33333333 : 1"
       inkscape:vp_z="1 : 0.5 : 1"
       inkscape:vp_y="0 : 1000 : 0"
       inkscape:vp_x="0 : 0.5 : 1"
       sodipodi:type="inkscape:persp3d" />
    <inkscape:perspective
       id="perspective2841"
       inkscape:persp3d-origin="0.5 : 0.33333333 : 1"
       inkscape:vp_z="1 : 0.5 : 1"
       inkscape:vp_y="0 : 1000 : 0"
       inkscape:vp_x="0 : 0.5 : 1"
       sodipodi:type="inkscape:persp3d" />
    <inkscape:perspective
       id="perspective4304"
       inkscape:persp3d-origin="0.5 : 0.33333333 : 1"
       inkscape:vp_z="1 : 0.5 : 1"
       inkscape:vp_y="0 : 1000 : 0"
       inkscape:vp_x="0 : 0.5 : 1"
       sodipodi:type="inkscape:persp3d" />
    <filter
       inkscape:collect="always"
       id="filter4835"
       color-interpolation-filters="sRGB">
      <feBlend
         inkscape:collect="always"
         mode="multiply"
         in2="BackgroundImage"
         id="feBlend4837" />
    </filter>
    <inkscape:perspective
       id="perspective5414"
       inkscape:persp3d-origin="0.5 : 0.33333333 : 1"
       inkscape:vp_z="1 : 0.5 : 1"
       inkscape:vp_y="0 : 1000 : 0"
       inkscape:vp_x="0 : 0.5 : 1"
       sodipodi:type="inkscape:persp3d" />
    <inkscape:perspective
       id="perspective5552"
       inkscape:persp3d-origin="0.5 : 0.33333333 : 1"
       inkscape:vp_z="1 : 0.5 : 1"
       inkscape:vp_y="0 : 1000 : 0"
       inkscape:vp_x="0 : 0.5 : 1"
       sodipodi:type="inkscape:persp3d" />
    <filter
       inkscape:collect="always"
       id="filter5604">
      <feGaussianBlur
         inkscape:collect="always"
         stdDeviation="0.6"
         id="feGaussianBlur5606" />
    </filter>
  </defs>
  <sodipodi:namedview
     id="base"
     pagecolor="#ffffff"
     bordercolor="#666666"
     borderopacity="1.0"
     inkscape:pageopacity="0.0"
     inkscape:pageshadow="2"
     inkscape:zoom="0.70710678"
     inkscape:cx="251.44897"
     inkscape:cy="13.598505"
     inkscape:document-units="px"
     inkscape:current-layer="layer2"
     showgrid="false"
     inkscape:window-width="1366"
     inkscape:window-height="706"
     inkscape:window-x="-8"
     inkscape:window-y="-8"
     inkscape:window-maximized="1"
     showguides="true"
     inkscape:guide-bbox="true" />
  <metadata
     id="metadata7">
    <rdf:RDF>
      <cc:Work
         rdf:about="">
        <dc:format>image/svg+xml</dc:format>
        <dc:type
           rdf:resource="http://purl.org/dc/dcmitype/StillImage" />
        <dc:title></dc:title>
      </cc:Work>
    </rdf:RDF>
  </metadata>
  <g
     inkscape:groupmode="layer"
     id="layer2"
     inkscape:label="Layer 1"
     style="display:inline;filter:url(#filter4835)">
    <rect
       style="fill:#ff6500;fill-opacity:1;stroke:none"
       id="rect5568"
       width="150.50967"
       height="150.50967"
       x="70.889832"
       y="24.924314" />
    <g
       id="g5570"
       transform="matrix(2.5084945,0,0,2.5084945,-358.13046,-542.82609)">
      <path
         sodipodi:nodetypes="czsc"
         id="path5558"
         d="m 224.5506,262.22539 c 16.34622,-27.68062 -21.93656,-39.48489 -23.73227,-31.8198 -1.79571,7.66509 25.01384,1.80229 22.03396,31.02209 -0.0902,0.88466 1.18599,1.10298 1.69831,0.79771 z"
         style="fill:#ffffff;stroke:none" />
      <path
         style="fill:#ffffff;stroke:none"
         d="m 209.47974,243.70289 c -19.98338,-14.93685 -41.84704,13.71732 -34.6118,19.05408 7.23525,5.33677 13.89696,-20.94525 33.97479,-17.99823 0.83041,0.12189 0.77514,-0.89166 0.63701,-1.05585 z"
         id="path5560"
         sodipodi:nodetypes="czsc" />
      <path
         sodipodi:nodetypes="cczc"
         id="path5562"
         d="m 202.26065,251.97491 c 2.66548,-2.27705 1.02077,-3.78633 -2.23969,-2.75947 -29.96895,12.07195 -10.43111,37.83552 -4.22754,35.13597 6.20357,-2.69955 -16.75841,-15.64125 6.46723,-32.3765 z"
         style="fill:#ffffff;stroke:none" />
      <path
         style="fill:#ffffff;stroke:none"
         d="m 201.05596,256.64658 c -7.5044,27.51615 22.48523,26.86248 26.42053,16.36172 0.60933,-2.39184 -1.52327,-2.28366 -2.42868,-2.01423 -11.35592,2.70168 -18.26463,0.59422 -20.50877,-12.53013 0.0416,-2.92257 -2.58946,-3.78333 -3.48308,-1.81736 z"
         id="path5564"
         sodipodi:nodetypes="ccccc" />
      <path
         transform="matrix(1.1612903,0,0,1.1612903,-30.188895,-35.006655)"
         sodipodi:open="true"
         sodipodi:end="6.2697804"
         sodipodi:start="0"
         d="m 215.66756,247.72971 c 0,3.02656 -2.45351,5.48007 -5.48008,5.48007 -3.02656,0 -5.48007,-2.45351 -5.48007,-5.48007 0,-3.02657 2.45351,-5.48008 5.48007,-5.48008 2.99792,0 5.4394,2.40897 5.47959,5.40662"
         sodipodi:ry="5.4800777"
         sodipodi:rx="5.4800777"
         sodipodi:cy="247.72971"
         sodipodi:cx="210.18748"
         id="path5566"
         style="fill:#ffffff;fill-opacity:1;stroke:none"
         sodipodi:type="arc" />
    </g>
    <g
       id="g5608"
       transform="matrix(0.63613231,0,0,0.63613231,144.02713,-82.896662)">
      <path
         style="fill:#000000;fill-opacity:1;stroke:none;filter:url(#filter5604)"
         d="m 229,231 0,60 60,0 0,-60 -60,0 z m 34.0625,1.78125 c 9.97349,-0.39845 32.75005,11.6345 19.46875,34.125 -0.51231,0.30527 -1.80895,0.0722 -1.71875,-0.8125 2.97988,-29.2198 -23.82695,-23.36616 -22.03125,-31.03125 0.3367,-1.4372 1.97968,-2.1893 4.28125,-2.28125 z m -8.65625,11.34375 c 4.22704,-0.20399 8.65989,0.98256 13.03125,4.25 0.13813,0.16419 0.20541,1.18439 -0.625,1.0625 -20.07783,-2.94702 -26.7335,23.33677 -33.96875,18 -5.65253,-4.16934 6.46594,-22.58395 21.5625,-23.3125 z m 17.46875,6.84375 c 3.48145,0 6.32833,2.80011 6.375,6.28125 l 0,0.0937 c 0,3.51472 -2.86028,6.375 -6.375,6.375 -3.51472,0 -6.375,-2.86028 -6.375,-6.375 0,-3.51472 2.86028,-6.375 6.375,-6.375 z m -11.78125,2.59375 c 1.71314,0.098 2.12411,1.38596 0.125,3.09375 -23.22564,16.73525 -0.23392,29.67545 -6.4375,32.375 -6.20356,2.69955 -25.7502,-23.0843 4.21875,-35.15625 0.81511,-0.25671 1.5227,-0.34517 2.09375,-0.3125 z m 0.4375,6.6875 c 0.98533,0.0291 1.99475,1.04839 1.96875,2.875 2.24414,13.12435 9.17532,15.23293 20.53125,12.53125 0.90541,-0.26943 3.01558,-0.36059 2.40625,2.03125 -3.93531,10.50076 -33.91065,11.14115 -26.40625,-16.375 0.33511,-0.73724 0.9088,-1.07994 1.5,-1.0625 z"
         id="path5598" />
      <path
         id="rect5577"
         d="m 230,230 0,60 60,0 0,-60 -60,0 z m 34.0625,1.78125 c 9.97349,-0.39845 32.75005,11.6345 19.46875,34.125 -0.51231,0.30527 -1.80895,0.0722 -1.71875,-0.8125 2.97988,-29.2198 -23.82695,-23.36616 -22.03125,-31.03125 0.3367,-1.4372 1.97968,-2.1893 4.28125,-2.28125 z m -8.65625,11.34375 c 4.22704,-0.20399 8.65989,0.98256 13.03125,4.25 0.13813,0.16419 0.20541,1.18439 -0.625,1.0625 -20.07783,-2.94702 -26.7335,23.33677 -33.96875,18 -5.65253,-4.16934 6.46594,-22.58395 21.5625,-23.3125 z m 17.46875,6.84375 c 3.48145,0 6.32833,2.80011 6.375,6.28125 l 0,0.0937 c 0,3.51472 -2.86028,6.375 -6.375,6.375 -3.51472,0 -6.375,-2.86028 -6.375,-6.375 0,-3.51472 2.86028,-6.375 6.375,-6.375 z m -11.78125,2.59375 c 1.71314,0.098 2.12411,1.38596 0.125,3.09375 -23.22564,16.73525 -0.23392,29.67545 -6.4375,32.375 -6.20356,2.69955 -25.7502,-23.0843 4.21875,-35.15625 0.81511,-0.25671 1.5227,-0.34517 2.09375,-0.3125 z m 0.4375,6.6875 c 0.98533,0.0291 1.99475,1.04839 1.96875,2.875 2.24414,13.12435 9.17532,15.23293 20.53125,12.53125 0.90541,-0.26943 3.01558,-0.36059 2.40625,2.03125 -3.93531,10.50076 -33.91065,11.14115 -26.40625,-16.375 0.33511,-0.73724 0.9088,-1.07994 1.5,-1.0625 z"
         style="fill:#ff6500;fill-opacity:1;stroke:none" />
    </g>
  </g>
</svg>
